<mxfile host="app.diagrams.net" agent="Mozilla/5.0 (Macintosh; Intel Mac OS X 10_15_7) AppleWebKit/537.36 (KHTML, like Gecko) Chrome/134.0.0.0 Safari/537.36" version="26.2.15" pages="2">
  <diagram id="C5RBs43oDa-KdzZeNtuy" name="Page-1">
    <mxGraphModel dx="1970" dy="1169" grid="1" gridSize="10" guides="1" tooltips="1" connect="1" arrows="1" fold="1" page="1" pageScale="1" pageWidth="690" pageHeight="980" background="none" math="0" shadow="0">
      <root>
        <mxCell id="WIyWlLk6GJQsqaUBKTNV-0" />
        <mxCell id="WIyWlLk6GJQsqaUBKTNV-1" parent="WIyWlLk6GJQsqaUBKTNV-0" />
        <mxCell id="C6dw9v0cGh8_laB9Q_cz-4" style="edgeStyle=orthogonalEdgeStyle;rounded=0;orthogonalLoop=1;jettySize=auto;html=1;exitX=1;exitY=0.75;exitDx=0;exitDy=0;entryX=0;entryY=1;entryDx=0;entryDy=0;" parent="WIyWlLk6GJQsqaUBKTNV-1" source="C6dw9v0cGh8_laB9Q_cz-1" target="C6dw9v0cGh8_laB9Q_cz-3" edge="1">
          <mxGeometry relative="1" as="geometry">
            <Array as="points">
              <mxPoint x="190" y="2208" />
              <mxPoint x="190" y="2262" />
            </Array>
          </mxGeometry>
        </mxCell>
        <mxCell id="x7PjpJtLWJ-oGzwMUkSd-5" value="语音数据" style="edgeLabel;html=1;align=center;verticalAlign=middle;resizable=0;points=[];" parent="C6dw9v0cGh8_laB9Q_cz-4" vertex="1" connectable="0">
          <mxGeometry x="-0.0339" y="5" relative="1" as="geometry">
            <mxPoint as="offset" />
          </mxGeometry>
        </mxCell>
        <mxCell id="5AW3J-fh9Zgp_AAcRgvr-202" value="用户登录" style="edgeStyle=orthogonalEdgeStyle;rounded=0;orthogonalLoop=1;jettySize=auto;html=1;exitX=1;exitY=0.25;exitDx=0;exitDy=0;entryX=0;entryY=0;entryDx=0;entryDy=0;" edge="1" parent="WIyWlLk6GJQsqaUBKTNV-1" source="C6dw9v0cGh8_laB9Q_cz-1" target="C6dw9v0cGh8_laB9Q_cz-3">
          <mxGeometry relative="1" as="geometry">
            <Array as="points">
              <mxPoint x="190" y="2183" />
              <mxPoint x="190" y="2128" />
            </Array>
          </mxGeometry>
        </mxCell>
        <mxCell id="5AW3J-fh9Zgp_AAcRgvr-204" value="用户注册" style="edgeStyle=orthogonalEdgeStyle;rounded=0;orthogonalLoop=1;jettySize=auto;html=1;exitX=1;exitY=0.5;exitDx=0;exitDy=0;entryX=0;entryY=0.5;entryDx=0;entryDy=0;" edge="1" parent="WIyWlLk6GJQsqaUBKTNV-1" source="C6dw9v0cGh8_laB9Q_cz-1" target="C6dw9v0cGh8_laB9Q_cz-3">
          <mxGeometry relative="1" as="geometry" />
        </mxCell>
        <mxCell id="5AW3J-fh9Zgp_AAcRgvr-207" value="大模型对话" style="edgeStyle=orthogonalEdgeStyle;rounded=0;orthogonalLoop=1;jettySize=auto;html=1;exitX=0.5;exitY=1;exitDx=0;exitDy=0;entryX=0.5;entryY=1;entryDx=0;entryDy=0;" edge="1" parent="WIyWlLk6GJQsqaUBKTNV-1" source="C6dw9v0cGh8_laB9Q_cz-1" target="C6dw9v0cGh8_laB9Q_cz-3">
          <mxGeometry relative="1" as="geometry">
            <Array as="points">
              <mxPoint x="105" y="2320" />
              <mxPoint x="390" y="2320" />
            </Array>
          </mxGeometry>
        </mxCell>
        <mxCell id="C6dw9v0cGh8_laB9Q_cz-1" value="用户" style="html=1;dashed=0;whiteSpace=wrap;" parent="WIyWlLk6GJQsqaUBKTNV-1" vertex="1">
          <mxGeometry x="60" y="2170" width="90" height="50" as="geometry" />
        </mxCell>
        <mxCell id="C6dw9v0cGh8_laB9Q_cz-5" value="dashboard" style="edgeStyle=orthogonalEdgeStyle;rounded=0;orthogonalLoop=1;jettySize=auto;html=1;entryX=0.5;entryY=0;entryDx=0;entryDy=0;" parent="WIyWlLk6GJQsqaUBKTNV-1" source="C6dw9v0cGh8_laB9Q_cz-3" target="C6dw9v0cGh8_laB9Q_cz-1" edge="1">
          <mxGeometry x="0.1574" relative="1" as="geometry">
            <mxPoint x="600" y="1980" as="targetPoint" />
            <Array as="points">
              <mxPoint x="600" y="2195" />
              <mxPoint x="600" y="2040" />
              <mxPoint x="105" y="2040" />
            </Array>
            <mxPoint as="offset" />
          </mxGeometry>
        </mxCell>
        <mxCell id="C6dw9v0cGh8_laB9Q_cz-3" value="声肺康语音诊断系统" style="shape=ellipse;html=1;dashed=0;whiteSpace=wrap;perimeter=ellipsePerimeter;" parent="WIyWlLk6GJQsqaUBKTNV-1" vertex="1">
          <mxGeometry x="290" y="2100" width="200" height="190" as="geometry" />
        </mxCell>
        <mxCell id="x7PjpJtLWJ-oGzwMUkSd-13" value="用户信息" style="edgeStyle=orthogonalEdgeStyle;rounded=0;orthogonalLoop=1;jettySize=auto;html=1;exitX=1;exitY=0.5;exitDx=0;exitDy=0;" parent="WIyWlLk6GJQsqaUBKTNV-1" source="x7PjpJtLWJ-oGzwMUkSd-1" target="x7PjpJtLWJ-oGzwMUkSd-7" edge="1">
          <mxGeometry relative="1" as="geometry" />
        </mxCell>
        <mxCell id="x7PjpJtLWJ-oGzwMUkSd-16" value="声音数据" style="edgeStyle=orthogonalEdgeStyle;rounded=0;orthogonalLoop=1;jettySize=auto;html=1;exitX=0.5;exitY=0;exitDx=0;exitDy=0;entryX=0;entryY=0.5;entryDx=0;entryDy=0;" parent="WIyWlLk6GJQsqaUBKTNV-1" source="x7PjpJtLWJ-oGzwMUkSd-1" target="x7PjpJtLWJ-oGzwMUkSd-11" edge="1">
          <mxGeometry relative="1" as="geometry" />
        </mxCell>
        <mxCell id="x7PjpJtLWJ-oGzwMUkSd-33" value="对话" style="edgeStyle=orthogonalEdgeStyle;rounded=0;orthogonalLoop=1;jettySize=auto;html=1;exitX=0.5;exitY=1;exitDx=0;exitDy=0;entryX=0;entryY=0.75;entryDx=0;entryDy=0;" parent="WIyWlLk6GJQsqaUBKTNV-1" source="x7PjpJtLWJ-oGzwMUkSd-1" target="x7PjpJtLWJ-oGzwMUkSd-9" edge="1">
          <mxGeometry relative="1" as="geometry" />
        </mxCell>
        <mxCell id="x7PjpJtLWJ-oGzwMUkSd-1" value="用户" style="html=1;dashed=0;whiteSpace=wrap;" parent="WIyWlLk6GJQsqaUBKTNV-1" vertex="1">
          <mxGeometry x="90" y="550" width="90" height="50" as="geometry" />
        </mxCell>
        <mxCell id="x7PjpJtLWJ-oGzwMUkSd-22" value="用户信息存储" style="edgeStyle=orthogonalEdgeStyle;rounded=0;orthogonalLoop=1;jettySize=auto;html=1;" parent="WIyWlLk6GJQsqaUBKTNV-1" source="x7PjpJtLWJ-oGzwMUkSd-7" target="x7PjpJtLWJ-oGzwMUkSd-14" edge="1">
          <mxGeometry relative="1" as="geometry" />
        </mxCell>
        <mxCell id="x7PjpJtLWJ-oGzwMUkSd-7" value="用户登陆注册&lt;div&gt;1&lt;/div&gt;" style="html=1;dashed=0;whiteSpace=wrap;rounded=1;" parent="WIyWlLk6GJQsqaUBKTNV-1" vertex="1">
          <mxGeometry x="320" y="530" width="100" height="90" as="geometry" />
        </mxCell>
        <mxCell id="x7PjpJtLWJ-oGzwMUkSd-36" value="诊断建议" style="edgeStyle=orthogonalEdgeStyle;rounded=0;orthogonalLoop=1;jettySize=auto;html=1;exitX=0.25;exitY=1;exitDx=0;exitDy=0;entryX=0.25;entryY=1;entryDx=0;entryDy=0;" parent="WIyWlLk6GJQsqaUBKTNV-1" source="x7PjpJtLWJ-oGzwMUkSd-9" target="x7PjpJtLWJ-oGzwMUkSd-1" edge="1">
          <mxGeometry relative="1" as="geometry" />
        </mxCell>
        <mxCell id="x7PjpJtLWJ-oGzwMUkSd-9" value="LLM诊断分析&lt;div&gt;2&lt;/div&gt;" style="html=1;dashed=0;whiteSpace=wrap;rounded=1;" parent="WIyWlLk6GJQsqaUBKTNV-1" vertex="1">
          <mxGeometry x="490" y="880" width="100" height="90" as="geometry" />
        </mxCell>
        <mxCell id="x7PjpJtLWJ-oGzwMUkSd-30" value="仪表盘内容" style="edgeStyle=orthogonalEdgeStyle;rounded=0;orthogonalLoop=1;jettySize=auto;html=1;exitX=0.5;exitY=0;exitDx=0;exitDy=0;entryX=0.25;entryY=0;entryDx=0;entryDy=0;" parent="WIyWlLk6GJQsqaUBKTNV-1" source="x7PjpJtLWJ-oGzwMUkSd-10" target="x7PjpJtLWJ-oGzwMUkSd-1" edge="1">
          <mxGeometry relative="1" as="geometry">
            <mxPoint x="90" y="420" as="targetPoint" />
          </mxGeometry>
        </mxCell>
        <mxCell id="x7PjpJtLWJ-oGzwMUkSd-10" value="dashboard&lt;div&gt;3&lt;/div&gt;" style="html=1;dashed=0;whiteSpace=wrap;rounded=1;" parent="WIyWlLk6GJQsqaUBKTNV-1" vertex="1">
          <mxGeometry x="690" y="460" width="100" height="90" as="geometry" />
        </mxCell>
        <mxCell id="x7PjpJtLWJ-oGzwMUkSd-27" style="edgeStyle=orthogonalEdgeStyle;rounded=0;orthogonalLoop=1;jettySize=auto;html=1;exitX=0.5;exitY=1;exitDx=0;exitDy=0;entryX=0.5;entryY=0;entryDx=0;entryDy=0;" parent="WIyWlLk6GJQsqaUBKTNV-1" source="x7PjpJtLWJ-oGzwMUkSd-11" target="x7PjpJtLWJ-oGzwMUkSd-26" edge="1">
          <mxGeometry relative="1" as="geometry" />
        </mxCell>
        <mxCell id="x7PjpJtLWJ-oGzwMUkSd-29" value="检测结果" style="edgeLabel;html=1;align=center;verticalAlign=middle;resizable=0;points=[];" parent="x7PjpJtLWJ-oGzwMUkSd-27" vertex="1" connectable="0">
          <mxGeometry x="-0.198" y="1" relative="1" as="geometry">
            <mxPoint as="offset" />
          </mxGeometry>
        </mxCell>
        <mxCell id="x7PjpJtLWJ-oGzwMUkSd-11" value="语音模型诊断&lt;div&gt;4&lt;span style=&quot;color: rgba(0, 0, 0, 0); font-family: monospace; font-size: 0px; text-align: start; text-wrap-mode: nowrap; background-color: transparent;&quot;&gt;%3CmxGraphModel%3E%3Croot%3E%3CmxCell%20id%3D%220%22%2F%3E%3CmxCell%20id%3D%221%22%20parent%3D%220%22%2F%3E%3CmxCell%20id%3D%222%22%20value%3D%22%E7%BB%93%E6%9E%9Cdashboard%26lt%3Bdiv%26gt%3B3%26lt%3B%2Fdiv%26gt%3B%22%20style%3D%22html%3D1%3Bdashed%3D0%3BwhiteSpace%3Dwrap%3B%22%20vertex%3D%221%22%20parent%3D%221%22%3E%3CmxGeometry%20x%3D%22270%22%20y%3D%22560%22%20width%3D%22100%22%20height%3D%2290%22%20as%3D%22geometry%22%2F%3E%3C%2FmxCell%3E%3C%2Froot%3E%3C%2FmxGraphModel%3E&lt;/span&gt;&lt;/div&gt;" style="html=1;dashed=0;whiteSpace=wrap;rounded=1;" parent="WIyWlLk6GJQsqaUBKTNV-1" vertex="1">
          <mxGeometry x="490" y="460" width="100" height="90" as="geometry" />
        </mxCell>
        <mxCell id="x7PjpJtLWJ-oGzwMUkSd-41" style="edgeStyle=orthogonalEdgeStyle;rounded=0;orthogonalLoop=1;jettySize=auto;html=1;exitX=0;exitY=0.5;exitDx=0;exitDy=0;" parent="WIyWlLk6GJQsqaUBKTNV-1" source="x7PjpJtLWJ-oGzwMUkSd-12" target="x7PjpJtLWJ-oGzwMUkSd-9" edge="1">
          <mxGeometry relative="1" as="geometry" />
        </mxCell>
        <mxCell id="x7PjpJtLWJ-oGzwMUkSd-12" value="历史检测&lt;span style=&quot;background-color: transparent; color: light-dark(rgb(0, 0, 0), rgb(255, 255, 255));&quot;&gt;数据&lt;/span&gt;&lt;div&gt;&lt;span style=&quot;background-color: transparent; color: light-dark(rgb(0, 0, 0), rgb(255, 255, 255));&quot;&gt;5&lt;/span&gt;&lt;/div&gt;" style="html=1;dashed=0;whiteSpace=wrap;rotation=0;rounded=1;" parent="WIyWlLk6GJQsqaUBKTNV-1" vertex="1">
          <mxGeometry x="680" y="880" width="100" height="90" as="geometry" />
        </mxCell>
        <mxCell id="x7PjpJtLWJ-oGzwMUkSd-24" style="edgeStyle=orthogonalEdgeStyle;rounded=0;orthogonalLoop=1;jettySize=auto;html=1;exitX=1;exitY=0;exitDx=0;exitDy=0;entryX=0;entryY=0.75;entryDx=0;entryDy=0;" parent="WIyWlLk6GJQsqaUBKTNV-1" source="x7PjpJtLWJ-oGzwMUkSd-14" target="x7PjpJtLWJ-oGzwMUkSd-11" edge="1">
          <mxGeometry relative="1" as="geometry">
            <mxPoint x="480" y="560.0000000000002" as="targetPoint" />
          </mxGeometry>
        </mxCell>
        <mxCell id="x7PjpJtLWJ-oGzwMUkSd-25" value="用户信息" style="edgeLabel;html=1;align=center;verticalAlign=middle;resizable=0;points=[];" parent="x7PjpJtLWJ-oGzwMUkSd-24" vertex="1" connectable="0">
          <mxGeometry x="-0.3875" y="-1" relative="1" as="geometry">
            <mxPoint as="offset" />
          </mxGeometry>
        </mxCell>
        <mxCell id="x7PjpJtLWJ-oGzwMUkSd-32" value="用户信息" style="edgeStyle=orthogonalEdgeStyle;rounded=0;orthogonalLoop=1;jettySize=auto;html=1;exitX=0.5;exitY=1;exitDx=0;exitDy=0;entryX=0;entryY=0.5;entryDx=0;entryDy=0;" parent="WIyWlLk6GJQsqaUBKTNV-1" source="x7PjpJtLWJ-oGzwMUkSd-14" target="x7PjpJtLWJ-oGzwMUkSd-9" edge="1">
          <mxGeometry relative="1" as="geometry" />
        </mxCell>
        <mxCell id="x7PjpJtLWJ-oGzwMUkSd-14" value="D1&amp;nbsp; &amp;nbsp;用户信息" style="html=1;dashed=0;whiteSpace=wrap;shape=mxgraph.dfd.dataStoreID;align=left;spacingLeft=3;points=[[0,0],[0.5,0],[1,0],[0,0.5],[1,0.5],[0,1],[0.5,1],[1,1]];" parent="WIyWlLk6GJQsqaUBKTNV-1" vertex="1">
          <mxGeometry x="300" y="740" width="140" height="40" as="geometry" />
        </mxCell>
        <mxCell id="x7PjpJtLWJ-oGzwMUkSd-28" value="检测结果" style="edgeStyle=orthogonalEdgeStyle;rounded=0;orthogonalLoop=1;jettySize=auto;html=1;exitX=1;exitY=0.5;exitDx=0;exitDy=0;entryX=0.5;entryY=1;entryDx=0;entryDy=0;" parent="WIyWlLk6GJQsqaUBKTNV-1" source="x7PjpJtLWJ-oGzwMUkSd-26" target="x7PjpJtLWJ-oGzwMUkSd-10" edge="1">
          <mxGeometry x="0.1174" relative="1" as="geometry">
            <Array as="points">
              <mxPoint x="740" y="760" />
            </Array>
            <mxPoint as="offset" />
          </mxGeometry>
        </mxCell>
        <mxCell id="x7PjpJtLWJ-oGzwMUkSd-31" value="本次检测指标" style="edgeStyle=orthogonalEdgeStyle;rounded=0;orthogonalLoop=1;jettySize=auto;html=1;exitX=0.5;exitY=1;exitDx=0;exitDy=0;" parent="WIyWlLk6GJQsqaUBKTNV-1" source="x7PjpJtLWJ-oGzwMUkSd-26" target="x7PjpJtLWJ-oGzwMUkSd-9" edge="1">
          <mxGeometry relative="1" as="geometry" />
        </mxCell>
        <mxCell id="x7PjpJtLWJ-oGzwMUkSd-26" value="D2&amp;nbsp; &amp;nbsp;数据指标" style="html=1;dashed=0;whiteSpace=wrap;shape=mxgraph.dfd.dataStoreID;align=left;spacingLeft=3;points=[[0,0],[0.5,0],[1,0],[0,0.5],[1,0.5],[0,1],[0.5,1],[1,1]];" parent="WIyWlLk6GJQsqaUBKTNV-1" vertex="1">
          <mxGeometry x="470" y="740" width="140" height="40" as="geometry" />
        </mxCell>
        <mxCell id="x7PjpJtLWJ-oGzwMUkSd-40" value="历史检测信息" style="edgeStyle=orthogonalEdgeStyle;rounded=0;orthogonalLoop=1;jettySize=auto;html=1;exitX=1;exitY=0.5;exitDx=0;exitDy=0;entryX=0.5;entryY=1;entryDx=0;entryDy=0;" parent="WIyWlLk6GJQsqaUBKTNV-1" source="x7PjpJtLWJ-oGzwMUkSd-37" target="x7PjpJtLWJ-oGzwMUkSd-12" edge="1">
          <mxGeometry relative="1" as="geometry" />
        </mxCell>
        <mxCell id="x7PjpJtLWJ-oGzwMUkSd-37" value="D3&amp;nbsp; &amp;nbsp;对话结果" style="html=1;dashed=0;whiteSpace=wrap;shape=mxgraph.dfd.dataStoreID;align=left;spacingLeft=3;points=[[0,0],[0.5,0],[1,0],[0,0.5],[1,0.5],[0,1],[0.5,1],[1,1]];" parent="WIyWlLk6GJQsqaUBKTNV-1" vertex="1">
          <mxGeometry x="470" y="1040" width="140" height="40" as="geometry" />
        </mxCell>
        <mxCell id="x7PjpJtLWJ-oGzwMUkSd-38" style="edgeStyle=orthogonalEdgeStyle;rounded=0;orthogonalLoop=1;jettySize=auto;html=1;exitX=0.5;exitY=1;exitDx=0;exitDy=0;" parent="WIyWlLk6GJQsqaUBKTNV-1" source="x7PjpJtLWJ-oGzwMUkSd-9" edge="1">
          <mxGeometry relative="1" as="geometry">
            <mxPoint x="540" y="1040" as="targetPoint" />
          </mxGeometry>
        </mxCell>
        <mxCell id="onHl9T6wErIcUPHgjuDd-0" value="用户信息" style="edgeStyle=orthogonalEdgeStyle;rounded=0;orthogonalLoop=1;jettySize=auto;html=1;exitX=1;exitY=0.5;exitDx=0;exitDy=0;" edge="1" parent="WIyWlLk6GJQsqaUBKTNV-1" source="onHl9T6wErIcUPHgjuDd-3" target="onHl9T6wErIcUPHgjuDd-5">
          <mxGeometry relative="1" as="geometry" />
        </mxCell>
        <mxCell id="onHl9T6wErIcUPHgjuDd-2" value="对话" style="edgeStyle=orthogonalEdgeStyle;rounded=0;orthogonalLoop=1;jettySize=auto;html=1;exitX=0.5;exitY=1;exitDx=0;exitDy=0;entryX=0;entryY=0.75;entryDx=0;entryDy=0;" edge="1" parent="WIyWlLk6GJQsqaUBKTNV-1" source="onHl9T6wErIcUPHgjuDd-3" target="onHl9T6wErIcUPHgjuDd-7">
          <mxGeometry relative="1" as="geometry" />
        </mxCell>
        <mxCell id="onHl9T6wErIcUPHgjuDd-28" value="声音数据" style="edgeStyle=orthogonalEdgeStyle;rounded=0;orthogonalLoop=1;jettySize=auto;html=1;exitX=0.5;exitY=0;exitDx=0;exitDy=0;entryX=0;entryY=0.5;entryDx=0;entryDy=0;" edge="1" parent="WIyWlLk6GJQsqaUBKTNV-1" source="onHl9T6wErIcUPHgjuDd-3" target="onHl9T6wErIcUPHgjuDd-14">
          <mxGeometry relative="1" as="geometry" />
        </mxCell>
        <mxCell id="onHl9T6wErIcUPHgjuDd-3" value="用户" style="html=1;dashed=0;whiteSpace=wrap;" vertex="1" parent="WIyWlLk6GJQsqaUBKTNV-1">
          <mxGeometry x="860" y="570" width="90" height="50" as="geometry" />
        </mxCell>
        <mxCell id="onHl9T6wErIcUPHgjuDd-4" value="用户信息存储" style="edgeStyle=orthogonalEdgeStyle;rounded=0;orthogonalLoop=1;jettySize=auto;html=1;" edge="1" parent="WIyWlLk6GJQsqaUBKTNV-1" source="onHl9T6wErIcUPHgjuDd-5" target="onHl9T6wErIcUPHgjuDd-18">
          <mxGeometry relative="1" as="geometry" />
        </mxCell>
        <mxCell id="onHl9T6wErIcUPHgjuDd-5" value="用户登陆注册&lt;div&gt;1&lt;/div&gt;" style="html=1;dashed=0;whiteSpace=wrap;rounded=1;" vertex="1" parent="WIyWlLk6GJQsqaUBKTNV-1">
          <mxGeometry x="1030" y="550" width="100" height="90" as="geometry" />
        </mxCell>
        <mxCell id="onHl9T6wErIcUPHgjuDd-31" value="llm诊断建议" style="edgeStyle=orthogonalEdgeStyle;rounded=0;orthogonalLoop=1;jettySize=auto;html=1;exitX=1;exitY=0.5;exitDx=0;exitDy=0;entryX=1;entryY=0.5;entryDx=0;entryDy=0;" edge="1" parent="WIyWlLk6GJQsqaUBKTNV-1" source="onHl9T6wErIcUPHgjuDd-7" target="onHl9T6wErIcUPHgjuDd-9">
          <mxGeometry relative="1" as="geometry">
            <mxPoint x="1590" y="500" as="targetPoint" />
            <Array as="points">
              <mxPoint x="1590" y="925" />
              <mxPoint x="1590" y="505" />
            </Array>
          </mxGeometry>
        </mxCell>
        <mxCell id="onHl9T6wErIcUPHgjuDd-7" value="LLM诊断分析&lt;div&gt;2&lt;/div&gt;" style="html=1;dashed=0;whiteSpace=wrap;rounded=1;" vertex="1" parent="WIyWlLk6GJQsqaUBKTNV-1">
          <mxGeometry x="1330" y="880" width="100" height="90" as="geometry" />
        </mxCell>
        <mxCell id="onHl9T6wErIcUPHgjuDd-8" value="仪表盘内容" style="edgeStyle=orthogonalEdgeStyle;rounded=0;orthogonalLoop=1;jettySize=auto;html=1;exitX=0.5;exitY=0;exitDx=0;exitDy=0;entryX=0.25;entryY=0;entryDx=0;entryDy=0;" edge="1" parent="WIyWlLk6GJQsqaUBKTNV-1" source="onHl9T6wErIcUPHgjuDd-9" target="onHl9T6wErIcUPHgjuDd-3">
          <mxGeometry relative="1" as="geometry">
            <mxPoint x="860" y="420" as="targetPoint" />
          </mxGeometry>
        </mxCell>
        <mxCell id="onHl9T6wErIcUPHgjuDd-9" value="dashboard&lt;div&gt;3&lt;/div&gt;" style="html=1;dashed=0;whiteSpace=wrap;rounded=1;" vertex="1" parent="WIyWlLk6GJQsqaUBKTNV-1">
          <mxGeometry x="1460" y="460" width="100" height="90" as="geometry" />
        </mxCell>
        <mxCell id="onHl9T6wErIcUPHgjuDd-10" style="edgeStyle=orthogonalEdgeStyle;rounded=0;orthogonalLoop=1;jettySize=auto;html=1;exitX=0.5;exitY=1;exitDx=0;exitDy=0;entryX=0.5;entryY=0;entryDx=0;entryDy=0;" edge="1" parent="WIyWlLk6GJQsqaUBKTNV-1" source="onHl9T6wErIcUPHgjuDd-12" target="onHl9T6wErIcUPHgjuDd-21">
          <mxGeometry relative="1" as="geometry" />
        </mxCell>
        <mxCell id="onHl9T6wErIcUPHgjuDd-11" value="检测结果" style="edgeLabel;html=1;align=center;verticalAlign=middle;resizable=0;points=[];" vertex="1" connectable="0" parent="onHl9T6wErIcUPHgjuDd-10">
          <mxGeometry x="-0.198" y="1" relative="1" as="geometry">
            <mxPoint as="offset" />
          </mxGeometry>
        </mxCell>
        <mxCell id="onHl9T6wErIcUPHgjuDd-12" value="语音模型诊断&lt;div&gt;4&lt;span style=&quot;color: rgba(0, 0, 0, 0); font-family: monospace; font-size: 0px; text-align: start; text-wrap-mode: nowrap; background-color: transparent;&quot;&gt;%3CmxGraphModel%3E%3Croot%3E%3CmxCell%20id%3D%220%22%2F%3E%3CmxCell%20id%3D%221%22%20parent%3D%220%22%2F%3E%3CmxCell%20id%3D%222%22%20value%3D%22%E7%BB%93%E6%9E%9Cdashboard%26lt%3Bdiv%26gt%3B3%26lt%3B%2Fdiv%26gt%3B%22%20style%3D%22html%3D1%3Bdashed%3D0%3BwhiteSpace%3Dwrap%3B%22%20vertex%3D%221%22%20parent%3D%221%22%3E%3CmxGeometry%20x%3D%22270%22%20y%3D%22560%22%20width%3D%22100%22%20height%3D%2290%22%20as%3D%22geometry%22%2F%3E%3C%2FmxCell%3E%3C%2Froot%3E%3C%2FmxGraphModel%3E&lt;/span&gt;&lt;/div&gt;" style="html=1;dashed=0;whiteSpace=wrap;rounded=1;" vertex="1" parent="WIyWlLk6GJQsqaUBKTNV-1">
          <mxGeometry x="1330" y="460" width="100" height="90" as="geometry" />
        </mxCell>
        <mxCell id="onHl9T6wErIcUPHgjuDd-29" style="edgeStyle=orthogonalEdgeStyle;rounded=0;orthogonalLoop=1;jettySize=auto;html=1;exitX=1;exitY=0.5;exitDx=0;exitDy=0;entryX=0;entryY=0.5;entryDx=0;entryDy=0;" edge="1" parent="WIyWlLk6GJQsqaUBKTNV-1" source="onHl9T6wErIcUPHgjuDd-14" target="onHl9T6wErIcUPHgjuDd-12">
          <mxGeometry relative="1" as="geometry" />
        </mxCell>
        <mxCell id="onHl9T6wErIcUPHgjuDd-14" value="特征提取&lt;br&gt;&lt;div&gt;&lt;span style=&quot;background-color: transparent; color: light-dark(rgb(0, 0, 0), rgb(255, 255, 255));&quot;&gt;5&lt;/span&gt;&lt;/div&gt;" style="html=1;dashed=0;whiteSpace=wrap;rotation=0;rounded=1;" vertex="1" parent="WIyWlLk6GJQsqaUBKTNV-1">
          <mxGeometry x="1170" y="460" width="100" height="90" as="geometry" />
        </mxCell>
        <mxCell id="onHl9T6wErIcUPHgjuDd-15" style="edgeStyle=orthogonalEdgeStyle;rounded=0;orthogonalLoop=1;jettySize=auto;html=1;exitX=1;exitY=0.5;exitDx=0;exitDy=0;entryX=0;entryY=0.75;entryDx=0;entryDy=0;" edge="1" parent="WIyWlLk6GJQsqaUBKTNV-1" source="onHl9T6wErIcUPHgjuDd-18" target="onHl9T6wErIcUPHgjuDd-12">
          <mxGeometry relative="1" as="geometry">
            <mxPoint x="1250" y="560.0000000000002" as="targetPoint" />
            <Array as="points">
              <mxPoint x="1280" y="760" />
              <mxPoint x="1280" y="528" />
            </Array>
          </mxGeometry>
        </mxCell>
        <mxCell id="onHl9T6wErIcUPHgjuDd-16" value="用户信息" style="edgeLabel;html=1;align=center;verticalAlign=middle;resizable=0;points=[];" vertex="1" connectable="0" parent="onHl9T6wErIcUPHgjuDd-15">
          <mxGeometry x="-0.3875" y="-1" relative="1" as="geometry">
            <mxPoint y="-82" as="offset" />
          </mxGeometry>
        </mxCell>
        <mxCell id="onHl9T6wErIcUPHgjuDd-17" value="用户信息" style="edgeStyle=orthogonalEdgeStyle;rounded=0;orthogonalLoop=1;jettySize=auto;html=1;exitX=0.5;exitY=1;exitDx=0;exitDy=0;entryX=0;entryY=0.5;entryDx=0;entryDy=0;" edge="1" parent="WIyWlLk6GJQsqaUBKTNV-1" source="onHl9T6wErIcUPHgjuDd-18" target="onHl9T6wErIcUPHgjuDd-7">
          <mxGeometry relative="1" as="geometry" />
        </mxCell>
        <mxCell id="onHl9T6wErIcUPHgjuDd-18" value="D1&amp;nbsp; &amp;nbsp;用户信息" style="html=1;dashed=0;whiteSpace=wrap;shape=mxgraph.dfd.dataStoreID;align=left;spacingLeft=3;points=[[0,0],[0.5,0],[1,0],[0,0.5],[1,0.5],[0,1],[0.5,1],[1,1]];" vertex="1" parent="WIyWlLk6GJQsqaUBKTNV-1">
          <mxGeometry x="1010" y="740" width="140" height="40" as="geometry" />
        </mxCell>
        <mxCell id="onHl9T6wErIcUPHgjuDd-19" value="检测结果" style="edgeStyle=orthogonalEdgeStyle;rounded=0;orthogonalLoop=1;jettySize=auto;html=1;exitX=1;exitY=0.5;exitDx=0;exitDy=0;entryX=0.5;entryY=1;entryDx=0;entryDy=0;" edge="1" parent="WIyWlLk6GJQsqaUBKTNV-1" source="onHl9T6wErIcUPHgjuDd-21" target="onHl9T6wErIcUPHgjuDd-9">
          <mxGeometry x="0.1174" relative="1" as="geometry">
            <Array as="points">
              <mxPoint x="1510" y="760" />
            </Array>
            <mxPoint as="offset" />
          </mxGeometry>
        </mxCell>
        <mxCell id="onHl9T6wErIcUPHgjuDd-20" value="本次检测指标" style="edgeStyle=orthogonalEdgeStyle;rounded=0;orthogonalLoop=1;jettySize=auto;html=1;exitX=0.5;exitY=1;exitDx=0;exitDy=0;" edge="1" parent="WIyWlLk6GJQsqaUBKTNV-1" source="onHl9T6wErIcUPHgjuDd-21" target="onHl9T6wErIcUPHgjuDd-7">
          <mxGeometry relative="1" as="geometry" />
        </mxCell>
        <mxCell id="onHl9T6wErIcUPHgjuDd-21" value="D2&amp;nbsp; &amp;nbsp;数据指标" style="html=1;dashed=0;whiteSpace=wrap;shape=mxgraph.dfd.dataStoreID;align=left;spacingLeft=3;points=[[0,0],[0.5,0],[1,0],[0,0.5],[1,0.5],[0,1],[0.5,1],[1,1]];" vertex="1" parent="WIyWlLk6GJQsqaUBKTNV-1">
          <mxGeometry x="1310" y="740" width="140" height="40" as="geometry" />
        </mxCell>
        <mxCell id="onHl9T6wErIcUPHgjuDd-30" value="历史检测信息" style="edgeStyle=orthogonalEdgeStyle;rounded=0;orthogonalLoop=1;jettySize=auto;html=1;exitX=1;exitY=0.5;exitDx=0;exitDy=0;entryX=1;entryY=0.75;entryDx=0;entryDy=0;" edge="1" parent="WIyWlLk6GJQsqaUBKTNV-1" source="onHl9T6wErIcUPHgjuDd-23" target="onHl9T6wErIcUPHgjuDd-7">
          <mxGeometry relative="1" as="geometry">
            <Array as="points">
              <mxPoint x="1590" y="1070" />
              <mxPoint x="1590" y="948" />
            </Array>
          </mxGeometry>
        </mxCell>
        <mxCell id="onHl9T6wErIcUPHgjuDd-23" value="D3&amp;nbsp; &amp;nbsp;诊断记录" style="html=1;dashed=0;whiteSpace=wrap;shape=mxgraph.dfd.dataStoreID;align=left;spacingLeft=3;points=[[0,0],[0.5,0],[1,0],[0,0.5],[1,0.5],[0,1],[0.5,1],[1,1]];" vertex="1" parent="WIyWlLk6GJQsqaUBKTNV-1">
          <mxGeometry x="1310" y="1050" width="140" height="40" as="geometry" />
        </mxCell>
        <mxCell id="onHl9T6wErIcUPHgjuDd-24" value="本次诊断结果" style="edgeStyle=orthogonalEdgeStyle;rounded=0;orthogonalLoop=1;jettySize=auto;html=1;exitX=0.5;exitY=1;exitDx=0;exitDy=0;entryX=0.5;entryY=0;entryDx=0;entryDy=0;" edge="1" parent="WIyWlLk6GJQsqaUBKTNV-1" source="onHl9T6wErIcUPHgjuDd-7" target="onHl9T6wErIcUPHgjuDd-23">
          <mxGeometry relative="1" as="geometry">
            <mxPoint x="1310" y="1040" as="targetPoint" />
          </mxGeometry>
        </mxCell>
        <mxCell id="5AW3J-fh9Zgp_AAcRgvr-50" value="用户信息" style="edgeStyle=orthogonalEdgeStyle;rounded=0;orthogonalLoop=1;jettySize=auto;html=1;exitX=1;exitY=0.5;exitDx=0;exitDy=0;" edge="1" parent="WIyWlLk6GJQsqaUBKTNV-1" source="5AW3J-fh9Zgp_AAcRgvr-53" target="5AW3J-fh9Zgp_AAcRgvr-55">
          <mxGeometry relative="1" as="geometry" />
        </mxCell>
        <mxCell id="5AW3J-fh9Zgp_AAcRgvr-51" value="对话" style="edgeStyle=orthogonalEdgeStyle;rounded=0;orthogonalLoop=1;jettySize=auto;html=1;exitX=0.5;exitY=1;exitDx=0;exitDy=0;entryX=0;entryY=0.75;entryDx=0;entryDy=0;" edge="1" parent="WIyWlLk6GJQsqaUBKTNV-1" source="5AW3J-fh9Zgp_AAcRgvr-53" target="5AW3J-fh9Zgp_AAcRgvr-57">
          <mxGeometry relative="1" as="geometry" />
        </mxCell>
        <mxCell id="5AW3J-fh9Zgp_AAcRgvr-52" value="声音数据" style="edgeStyle=orthogonalEdgeStyle;rounded=0;orthogonalLoop=1;jettySize=auto;html=1;exitX=0.5;exitY=0;exitDx=0;exitDy=0;entryX=0;entryY=0.5;entryDx=0;entryDy=0;" edge="1" parent="WIyWlLk6GJQsqaUBKTNV-1" source="5AW3J-fh9Zgp_AAcRgvr-53" target="5AW3J-fh9Zgp_AAcRgvr-64">
          <mxGeometry relative="1" as="geometry" />
        </mxCell>
        <mxCell id="5AW3J-fh9Zgp_AAcRgvr-53" value="用户" style="html=1;dashed=0;whiteSpace=wrap;" vertex="1" parent="WIyWlLk6GJQsqaUBKTNV-1">
          <mxGeometry x="880" y="1289.92" width="90" height="50" as="geometry" />
        </mxCell>
        <mxCell id="5AW3J-fh9Zgp_AAcRgvr-54" value="用户信息存储" style="edgeStyle=orthogonalEdgeStyle;rounded=0;orthogonalLoop=1;jettySize=auto;html=1;" edge="1" parent="WIyWlLk6GJQsqaUBKTNV-1" source="5AW3J-fh9Zgp_AAcRgvr-55" target="5AW3J-fh9Zgp_AAcRgvr-68">
          <mxGeometry relative="1" as="geometry" />
        </mxCell>
        <mxCell id="5AW3J-fh9Zgp_AAcRgvr-55" value="用户登陆注册&lt;div&gt;1&lt;/div&gt;" style="html=1;dashed=0;whiteSpace=wrap;rounded=1;" vertex="1" parent="WIyWlLk6GJQsqaUBKTNV-1">
          <mxGeometry x="1050" y="1269.92" width="100" height="90" as="geometry" />
        </mxCell>
        <mxCell id="5AW3J-fh9Zgp_AAcRgvr-78" value="用户id" style="edgeStyle=orthogonalEdgeStyle;rounded=0;orthogonalLoop=1;jettySize=auto;html=1;exitX=1;exitY=0.25;exitDx=0;exitDy=0;entryX=0.5;entryY=1;entryDx=0;entryDy=0;" edge="1" parent="WIyWlLk6GJQsqaUBKTNV-1" source="5AW3J-fh9Zgp_AAcRgvr-55" target="5AW3J-fh9Zgp_AAcRgvr-64">
          <mxGeometry relative="1" as="geometry" />
        </mxCell>
        <mxCell id="5AW3J-fh9Zgp_AAcRgvr-56" value="llm诊断建议" style="edgeStyle=orthogonalEdgeStyle;rounded=0;orthogonalLoop=1;jettySize=auto;html=1;exitX=1;exitY=0.5;exitDx=0;exitDy=0;entryX=1;entryY=0.5;entryDx=0;entryDy=0;" edge="1" parent="WIyWlLk6GJQsqaUBKTNV-1" source="5AW3J-fh9Zgp_AAcRgvr-57" target="5AW3J-fh9Zgp_AAcRgvr-59">
          <mxGeometry relative="1" as="geometry">
            <mxPoint x="1610" y="1219.92" as="targetPoint" />
            <Array as="points">
              <mxPoint x="1610" y="1644.92" />
              <mxPoint x="1610" y="1224.92" />
            </Array>
          </mxGeometry>
        </mxCell>
        <mxCell id="5AW3J-fh9Zgp_AAcRgvr-57" value="LLM诊断分析&lt;div&gt;2&lt;/div&gt;" style="html=1;dashed=0;whiteSpace=wrap;rounded=1;" vertex="1" parent="WIyWlLk6GJQsqaUBKTNV-1">
          <mxGeometry x="1350" y="1599.92" width="100" height="90" as="geometry" />
        </mxCell>
        <mxCell id="5AW3J-fh9Zgp_AAcRgvr-58" value="仪表盘内容" style="edgeStyle=orthogonalEdgeStyle;rounded=0;orthogonalLoop=1;jettySize=auto;html=1;exitX=0.5;exitY=0;exitDx=0;exitDy=0;entryX=0.25;entryY=0;entryDx=0;entryDy=0;" edge="1" parent="WIyWlLk6GJQsqaUBKTNV-1" source="5AW3J-fh9Zgp_AAcRgvr-59" target="5AW3J-fh9Zgp_AAcRgvr-53">
          <mxGeometry relative="1" as="geometry">
            <mxPoint x="880" y="1139.92" as="targetPoint" />
          </mxGeometry>
        </mxCell>
        <mxCell id="5AW3J-fh9Zgp_AAcRgvr-59" value="dashboard&lt;div&gt;3&lt;/div&gt;" style="html=1;dashed=0;whiteSpace=wrap;rounded=1;" vertex="1" parent="WIyWlLk6GJQsqaUBKTNV-1">
          <mxGeometry x="1480" y="1179.92" width="100" height="90" as="geometry" />
        </mxCell>
        <mxCell id="5AW3J-fh9Zgp_AAcRgvr-60" style="edgeStyle=orthogonalEdgeStyle;rounded=0;orthogonalLoop=1;jettySize=auto;html=1;exitX=0.5;exitY=1;exitDx=0;exitDy=0;entryX=0.5;entryY=0;entryDx=0;entryDy=0;" edge="1" parent="WIyWlLk6GJQsqaUBKTNV-1" source="5AW3J-fh9Zgp_AAcRgvr-62" target="5AW3J-fh9Zgp_AAcRgvr-71">
          <mxGeometry relative="1" as="geometry" />
        </mxCell>
        <mxCell id="5AW3J-fh9Zgp_AAcRgvr-61" value="检测结果" style="edgeLabel;html=1;align=center;verticalAlign=middle;resizable=0;points=[];" vertex="1" connectable="0" parent="5AW3J-fh9Zgp_AAcRgvr-60">
          <mxGeometry x="-0.198" y="1" relative="1" as="geometry">
            <mxPoint as="offset" />
          </mxGeometry>
        </mxCell>
        <mxCell id="5AW3J-fh9Zgp_AAcRgvr-62" value="语音模型诊断&lt;div&gt;4&lt;span style=&quot;color: rgba(0, 0, 0, 0); font-family: monospace; font-size: 0px; text-align: start; text-wrap-mode: nowrap; background-color: transparent;&quot;&gt;%3CmxGraphModel%3E%3Croot%3E%3CmxCell%20id%3D%220%22%2F%3E%3CmxCell%20id%3D%221%22%20parent%3D%220%22%2F%3E%3CmxCell%20id%3D%222%22%20value%3D%22%E7%BB%93%E6%9E%9Cdashboard%26lt%3Bdiv%26gt%3B3%26lt%3B%2Fdiv%26gt%3B%22%20style%3D%22html%3D1%3Bdashed%3D0%3BwhiteSpace%3Dwrap%3B%22%20vertex%3D%221%22%20parent%3D%221%22%3E%3CmxGeometry%20x%3D%22270%22%20y%3D%22560%22%20width%3D%22100%22%20height%3D%2290%22%20as%3D%22geometry%22%2F%3E%3C%2FmxCell%3E%3C%2Froot%3E%3C%2FmxGraphModel%3E&lt;/span&gt;&lt;/div&gt;" style="html=1;dashed=0;whiteSpace=wrap;rounded=1;" vertex="1" parent="WIyWlLk6GJQsqaUBKTNV-1">
          <mxGeometry x="1350" y="1179.92" width="100" height="90" as="geometry" />
        </mxCell>
        <mxCell id="5AW3J-fh9Zgp_AAcRgvr-63" style="edgeStyle=orthogonalEdgeStyle;rounded=0;orthogonalLoop=1;jettySize=auto;html=1;exitX=1;exitY=0.5;exitDx=0;exitDy=0;entryX=0;entryY=0.5;entryDx=0;entryDy=0;" edge="1" parent="WIyWlLk6GJQsqaUBKTNV-1" source="5AW3J-fh9Zgp_AAcRgvr-64" target="5AW3J-fh9Zgp_AAcRgvr-62">
          <mxGeometry relative="1" as="geometry" />
        </mxCell>
        <mxCell id="5AW3J-fh9Zgp_AAcRgvr-64" value="特征提取&lt;br&gt;&lt;div&gt;&lt;span style=&quot;background-color: transparent; color: light-dark(rgb(0, 0, 0), rgb(255, 255, 255));&quot;&gt;5&lt;/span&gt;&lt;/div&gt;" style="html=1;dashed=0;whiteSpace=wrap;rotation=0;rounded=1;" vertex="1" parent="WIyWlLk6GJQsqaUBKTNV-1">
          <mxGeometry x="1190" y="1179.92" width="100" height="90" as="geometry" />
        </mxCell>
        <mxCell id="5AW3J-fh9Zgp_AAcRgvr-75" value="用户信息" style="edgeStyle=orthogonalEdgeStyle;rounded=0;orthogonalLoop=1;jettySize=auto;html=1;exitX=1;exitY=0.5;exitDx=0;exitDy=0;" edge="1" parent="WIyWlLk6GJQsqaUBKTNV-1" source="5AW3J-fh9Zgp_AAcRgvr-68">
          <mxGeometry relative="1" as="geometry">
            <mxPoint x="1150" y="1330" as="targetPoint" />
            <Array as="points">
              <mxPoint x="1230" y="1480" />
              <mxPoint x="1230" y="1330" />
              <mxPoint x="1150" y="1330" />
            </Array>
          </mxGeometry>
        </mxCell>
        <mxCell id="5AW3J-fh9Zgp_AAcRgvr-79" value="用户id" style="edgeStyle=orthogonalEdgeStyle;rounded=0;orthogonalLoop=1;jettySize=auto;html=1;exitX=0.804;exitY=1.011;exitDx=0;exitDy=0;entryX=0;entryY=0.75;entryDx=0;entryDy=0;exitPerimeter=0;" edge="1" parent="WIyWlLk6GJQsqaUBKTNV-1" source="5AW3J-fh9Zgp_AAcRgvr-68" target="5AW3J-fh9Zgp_AAcRgvr-62">
          <mxGeometry relative="1" as="geometry">
            <Array as="points">
              <mxPoint x="1143" y="1520" />
              <mxPoint x="1300" y="1520" />
              <mxPoint x="1300" y="1247" />
            </Array>
          </mxGeometry>
        </mxCell>
        <mxCell id="5AW3J-fh9Zgp_AAcRgvr-80" value="用户id" style="edgeStyle=orthogonalEdgeStyle;rounded=0;orthogonalLoop=1;jettySize=auto;html=1;exitX=0.5;exitY=1;exitDx=0;exitDy=0;entryX=0;entryY=0.25;entryDx=0;entryDy=0;" edge="1" parent="WIyWlLk6GJQsqaUBKTNV-1" source="5AW3J-fh9Zgp_AAcRgvr-68" target="5AW3J-fh9Zgp_AAcRgvr-57">
          <mxGeometry relative="1" as="geometry" />
        </mxCell>
        <mxCell id="5AW3J-fh9Zgp_AAcRgvr-69" value="检测结果" style="edgeStyle=orthogonalEdgeStyle;rounded=0;orthogonalLoop=1;jettySize=auto;html=1;exitX=1;exitY=0.5;exitDx=0;exitDy=0;entryX=0.5;entryY=1;entryDx=0;entryDy=0;" edge="1" parent="WIyWlLk6GJQsqaUBKTNV-1" source="5AW3J-fh9Zgp_AAcRgvr-71" target="5AW3J-fh9Zgp_AAcRgvr-59">
          <mxGeometry x="0.1174" relative="1" as="geometry">
            <Array as="points">
              <mxPoint x="1530" y="1479.92" />
            </Array>
            <mxPoint as="offset" />
          </mxGeometry>
        </mxCell>
        <mxCell id="5AW3J-fh9Zgp_AAcRgvr-68" value="D1&amp;nbsp; &amp;nbsp;用户信息" style="html=1;dashed=0;whiteSpace=wrap;shape=mxgraph.dfd.dataStoreID;align=left;spacingLeft=3;points=[[0,0],[0.5,0],[1,0],[0,0.5],[1,0.5],[0,1],[0.5,1],[1,1]];" vertex="1" parent="WIyWlLk6GJQsqaUBKTNV-1">
          <mxGeometry x="1030" y="1459.92" width="140" height="40" as="geometry" />
        </mxCell>
        <mxCell id="5AW3J-fh9Zgp_AAcRgvr-70" value="本次检测指标" style="edgeStyle=orthogonalEdgeStyle;rounded=0;orthogonalLoop=1;jettySize=auto;html=1;exitX=0.5;exitY=1;exitDx=0;exitDy=0;" edge="1" parent="WIyWlLk6GJQsqaUBKTNV-1" source="5AW3J-fh9Zgp_AAcRgvr-71" target="5AW3J-fh9Zgp_AAcRgvr-57">
          <mxGeometry relative="1" as="geometry" />
        </mxCell>
        <mxCell id="5AW3J-fh9Zgp_AAcRgvr-71" value="D2&amp;nbsp; &amp;nbsp;数据指标" style="html=1;dashed=0;whiteSpace=wrap;shape=mxgraph.dfd.dataStoreID;align=left;spacingLeft=3;points=[[0,0],[0.5,0],[1,0],[0,0.5],[1,0.5],[0,1],[0.5,1],[1,1]];" vertex="1" parent="WIyWlLk6GJQsqaUBKTNV-1">
          <mxGeometry x="1330" y="1459.92" width="140" height="40" as="geometry" />
        </mxCell>
        <mxCell id="5AW3J-fh9Zgp_AAcRgvr-72" value="历史检测信息" style="edgeStyle=orthogonalEdgeStyle;rounded=0;orthogonalLoop=1;jettySize=auto;html=1;exitX=1;exitY=0.5;exitDx=0;exitDy=0;entryX=1;entryY=0.75;entryDx=0;entryDy=0;" edge="1" parent="WIyWlLk6GJQsqaUBKTNV-1" source="5AW3J-fh9Zgp_AAcRgvr-73" target="5AW3J-fh9Zgp_AAcRgvr-57">
          <mxGeometry relative="1" as="geometry">
            <Array as="points">
              <mxPoint x="1610" y="1789.92" />
              <mxPoint x="1610" y="1667.92" />
            </Array>
          </mxGeometry>
        </mxCell>
        <mxCell id="5AW3J-fh9Zgp_AAcRgvr-73" value="D3&amp;nbsp; &amp;nbsp;诊断记录" style="html=1;dashed=0;whiteSpace=wrap;shape=mxgraph.dfd.dataStoreID;align=left;spacingLeft=3;points=[[0,0],[0.5,0],[1,0],[0,0.5],[1,0.5],[0,1],[0.5,1],[1,1]];" vertex="1" parent="WIyWlLk6GJQsqaUBKTNV-1">
          <mxGeometry x="1330" y="1769.92" width="140" height="40" as="geometry" />
        </mxCell>
        <mxCell id="5AW3J-fh9Zgp_AAcRgvr-74" value="本次诊断结果" style="edgeStyle=orthogonalEdgeStyle;rounded=0;orthogonalLoop=1;jettySize=auto;html=1;exitX=0.5;exitY=1;exitDx=0;exitDy=0;entryX=0.5;entryY=0;entryDx=0;entryDy=0;" edge="1" parent="WIyWlLk6GJQsqaUBKTNV-1" source="5AW3J-fh9Zgp_AAcRgvr-57" target="5AW3J-fh9Zgp_AAcRgvr-73">
          <mxGeometry relative="1" as="geometry">
            <mxPoint x="1330" y="1759.92" as="targetPoint" />
          </mxGeometry>
        </mxCell>
        <mxCell id="5AW3J-fh9Zgp_AAcRgvr-106" value="用户注册" style="edgeStyle=orthogonalEdgeStyle;rounded=0;orthogonalLoop=1;jettySize=auto;html=1;entryX=0;entryY=0.25;entryDx=0;entryDy=0;exitX=0.75;exitY=1;exitDx=0;exitDy=0;" edge="1" parent="WIyWlLk6GJQsqaUBKTNV-1" source="5AW3J-fh9Zgp_AAcRgvr-84" target="5AW3J-fh9Zgp_AAcRgvr-95">
          <mxGeometry relative="1" as="geometry">
            <mxPoint x="840" y="2065" as="sourcePoint" />
            <mxPoint x="880" y="2065" as="targetPoint" />
            <Array as="points">
              <mxPoint x="757" y="2053" />
              <mxPoint x="850" y="2053" />
            </Array>
          </mxGeometry>
        </mxCell>
        <mxCell id="5AW3J-fh9Zgp_AAcRgvr-115" value="用户登录" style="edgeStyle=orthogonalEdgeStyle;rounded=0;orthogonalLoop=1;jettySize=auto;html=1;exitX=1;exitY=0.75;exitDx=0;exitDy=0;entryX=0.25;entryY=0;entryDx=0;entryDy=0;" edge="1" parent="WIyWlLk6GJQsqaUBKTNV-1" source="5AW3J-fh9Zgp_AAcRgvr-84" target="5AW3J-fh9Zgp_AAcRgvr-95">
          <mxGeometry relative="1" as="geometry">
            <Array as="points">
              <mxPoint x="945" y="1997" />
            </Array>
          </mxGeometry>
        </mxCell>
        <mxCell id="5AW3J-fh9Zgp_AAcRgvr-116" value="大模型对话" style="edgeStyle=orthogonalEdgeStyle;rounded=0;orthogonalLoop=1;jettySize=auto;html=1;exitX=1;exitY=0.5;exitDx=0;exitDy=0;entryX=0.5;entryY=0;entryDx=0;entryDy=0;" edge="1" parent="WIyWlLk6GJQsqaUBKTNV-1" source="5AW3J-fh9Zgp_AAcRgvr-84" target="5AW3J-fh9Zgp_AAcRgvr-95">
          <mxGeometry relative="1" as="geometry">
            <Array as="points">
              <mxPoint x="970" y="1985" />
            </Array>
          </mxGeometry>
        </mxCell>
        <mxCell id="5AW3J-fh9Zgp_AAcRgvr-119" value="声音数据" style="edgeStyle=orthogonalEdgeStyle;rounded=0;orthogonalLoop=1;jettySize=auto;html=1;exitX=1;exitY=0.25;exitDx=0;exitDy=0;entryX=0.75;entryY=0;entryDx=0;entryDy=0;" edge="1" parent="WIyWlLk6GJQsqaUBKTNV-1" source="5AW3J-fh9Zgp_AAcRgvr-84" target="5AW3J-fh9Zgp_AAcRgvr-95">
          <mxGeometry relative="1" as="geometry">
            <mxPoint x="1020" y="1970" as="targetPoint" />
            <Array as="points">
              <mxPoint x="995" y="1973" />
            </Array>
          </mxGeometry>
        </mxCell>
        <mxCell id="5AW3J-fh9Zgp_AAcRgvr-84" value="用户" style="html=1;dashed=0;whiteSpace=wrap;" vertex="1" parent="WIyWlLk6GJQsqaUBKTNV-1">
          <mxGeometry x="690" y="1960" width="90" height="50" as="geometry" />
        </mxCell>
        <mxCell id="5AW3J-fh9Zgp_AAcRgvr-85" value="用户信息存储" style="edgeStyle=orthogonalEdgeStyle;rounded=0;orthogonalLoop=1;jettySize=auto;html=1;" edge="1" parent="WIyWlLk6GJQsqaUBKTNV-1" source="5AW3J-fh9Zgp_AAcRgvr-86" target="5AW3J-fh9Zgp_AAcRgvr-99">
          <mxGeometry relative="1" as="geometry" />
        </mxCell>
        <mxCell id="5AW3J-fh9Zgp_AAcRgvr-124" value="用户对应界面" style="edgeStyle=orthogonalEdgeStyle;rounded=0;orthogonalLoop=1;jettySize=auto;html=1;exitX=0.25;exitY=1;exitDx=0;exitDy=0;entryX=1;entryY=1;entryDx=0;entryDy=0;" edge="1" parent="WIyWlLk6GJQsqaUBKTNV-1" source="5AW3J-fh9Zgp_AAcRgvr-86" target="5AW3J-fh9Zgp_AAcRgvr-95">
          <mxGeometry relative="1" as="geometry">
            <mxPoint x="1050" y="2160" as="targetPoint" />
            <Array as="points">
              <mxPoint x="1160" y="2140" />
              <mxPoint x="1020" y="2140" />
            </Array>
          </mxGeometry>
        </mxCell>
        <mxCell id="5AW3J-fh9Zgp_AAcRgvr-86" value="用户登陆注册&lt;div&gt;2&lt;/div&gt;" style="html=1;dashed=0;whiteSpace=wrap;rounded=1;" vertex="1" parent="WIyWlLk6GJQsqaUBKTNV-1">
          <mxGeometry x="1135" y="2030" width="100" height="90" as="geometry" />
        </mxCell>
        <mxCell id="5AW3J-fh9Zgp_AAcRgvr-108" value="llm&lt;span style=&quot;background-color: light-dark(#ffffff, var(--ge-dark-color, #121212)); color: light-dark(rgb(0, 0, 0), rgb(255, 255, 255));&quot;&gt;建议&lt;/span&gt;" style="edgeStyle=orthogonalEdgeStyle;rounded=0;orthogonalLoop=1;jettySize=auto;html=1;exitX=0;exitY=0.5;exitDx=0;exitDy=0;entryX=1;entryY=0.75;entryDx=0;entryDy=0;" edge="1" parent="WIyWlLk6GJQsqaUBKTNV-1" source="5AW3J-fh9Zgp_AAcRgvr-88" target="5AW3J-fh9Zgp_AAcRgvr-90">
          <mxGeometry relative="1" as="geometry">
            <Array as="points">
              <mxPoint x="1495" y="2417" />
            </Array>
          </mxGeometry>
        </mxCell>
        <mxCell id="PU9GwJ7Ga9DkK4zif8IB-57" style="edgeStyle=orthogonalEdgeStyle;shape=connector;rounded=0;orthogonalLoop=1;jettySize=auto;html=1;exitX=1;exitY=0.25;exitDx=0;exitDy=0;entryX=0;entryY=1;entryDx=0;entryDy=0;strokeColor=default;align=center;verticalAlign=middle;fontFamily=Helvetica;fontSize=11;fontColor=default;labelBackgroundColor=default;startFill=0;endArrow=classic;endFill=1;" edge="1" parent="WIyWlLk6GJQsqaUBKTNV-1" source="5AW3J-fh9Zgp_AAcRgvr-88" target="5AW3J-fh9Zgp_AAcRgvr-95">
          <mxGeometry relative="1" as="geometry">
            <Array as="points">
              <mxPoint x="1720" y="2372" />
              <mxPoint x="1720" y="2600" />
              <mxPoint x="920" y="2600" />
            </Array>
          </mxGeometry>
        </mxCell>
        <mxCell id="PU9GwJ7Ga9DkK4zif8IB-58" value="对话信息" style="edgeLabel;html=1;align=center;verticalAlign=middle;resizable=0;points=[];fontFamily=Helvetica;fontSize=11;fontColor=default;labelBackgroundColor=default;" vertex="1" connectable="0" parent="PU9GwJ7Ga9DkK4zif8IB-57">
          <mxGeometry x="-0.1638" y="8" relative="1" as="geometry">
            <mxPoint x="-1" as="offset" />
          </mxGeometry>
        </mxCell>
        <mxCell id="5AW3J-fh9Zgp_AAcRgvr-88" value="LLM诊断分析&lt;div&gt;5&lt;/div&gt;" style="html=1;dashed=0;whiteSpace=wrap;rounded=1;" vertex="1" parent="WIyWlLk6GJQsqaUBKTNV-1">
          <mxGeometry x="1495" y="2349.92" width="100" height="90" as="geometry" />
        </mxCell>
        <mxCell id="5AW3J-fh9Zgp_AAcRgvr-109" value="仪表盘内容" style="edgeStyle=orthogonalEdgeStyle;rounded=0;orthogonalLoop=1;jettySize=auto;html=1;exitX=0;exitY=0.5;exitDx=0;exitDy=0;entryX=0.5;entryY=1;entryDx=0;entryDy=0;" edge="1" parent="WIyWlLk6GJQsqaUBKTNV-1" source="5AW3J-fh9Zgp_AAcRgvr-90" target="5AW3J-fh9Zgp_AAcRgvr-95">
          <mxGeometry relative="1" as="geometry" />
        </mxCell>
        <mxCell id="5AW3J-fh9Zgp_AAcRgvr-90" value="dashboard&lt;div&gt;3&lt;/div&gt;" style="html=1;dashed=0;whiteSpace=wrap;rounded=1;" vertex="1" parent="WIyWlLk6GJQsqaUBKTNV-1">
          <mxGeometry x="1135" y="2349.92" width="100" height="90" as="geometry" />
        </mxCell>
        <mxCell id="5AW3J-fh9Zgp_AAcRgvr-91" style="edgeStyle=orthogonalEdgeStyle;rounded=0;orthogonalLoop=1;jettySize=auto;html=1;exitX=0.5;exitY=1;exitDx=0;exitDy=0;entryX=0.5;entryY=0;entryDx=0;entryDy=0;" edge="1" parent="WIyWlLk6GJQsqaUBKTNV-1" source="5AW3J-fh9Zgp_AAcRgvr-93" target="5AW3J-fh9Zgp_AAcRgvr-102">
          <mxGeometry relative="1" as="geometry">
            <mxPoint x="1543" y="2120" as="sourcePoint" />
            <mxPoint x="1460" y="2210" as="targetPoint" />
            <Array as="points">
              <mxPoint x="1545" y="2190" />
              <mxPoint x="1460" y="2190" />
            </Array>
          </mxGeometry>
        </mxCell>
        <mxCell id="5AW3J-fh9Zgp_AAcRgvr-92" value="用户检测结果（dash)" style="edgeLabel;html=1;align=center;verticalAlign=middle;resizable=0;points=[];" vertex="1" connectable="0" parent="5AW3J-fh9Zgp_AAcRgvr-91">
          <mxGeometry x="-0.198" y="1" relative="1" as="geometry">
            <mxPoint x="-97" y="-51" as="offset" />
          </mxGeometry>
        </mxCell>
        <mxCell id="5AW3J-fh9Zgp_AAcRgvr-167" value="用户检测结果（db)" style="edgeLabel;html=1;align=center;verticalAlign=middle;resizable=0;points=[];" vertex="1" connectable="0" parent="5AW3J-fh9Zgp_AAcRgvr-91">
          <mxGeometry x="-0.0183" y="-1" relative="1" as="geometry">
            <mxPoint x="-29" y="-9" as="offset" />
          </mxGeometry>
        </mxCell>
        <mxCell id="5AW3J-fh9Zgp_AAcRgvr-125" style="edgeStyle=orthogonalEdgeStyle;rounded=0;orthogonalLoop=1;jettySize=auto;html=1;exitX=0.25;exitY=1;exitDx=0;exitDy=0;entryX=1;entryY=0.25;entryDx=0;entryDy=0;" edge="1" parent="WIyWlLk6GJQsqaUBKTNV-1" source="5AW3J-fh9Zgp_AAcRgvr-93" target="5AW3J-fh9Zgp_AAcRgvr-90">
          <mxGeometry relative="1" as="geometry">
            <Array as="points">
              <mxPoint x="1520" y="2150" />
              <mxPoint x="1360" y="2150" />
              <mxPoint x="1360" y="2372" />
            </Array>
          </mxGeometry>
        </mxCell>
        <mxCell id="5AW3J-fh9Zgp_AAcRgvr-93" value="语音模型诊断&lt;div&gt;4&lt;span style=&quot;color: rgba(0, 0, 0, 0); font-family: monospace; font-size: 0px; text-align: start; text-wrap-mode: nowrap; background-color: transparent;&quot;&gt;%3CmxGraphModel%3E%3Croot%3E%3CmxCell%20id%3D%220%22%2F%3E%3CmxCell%20id%3D%221%22%20parent%3D%220%22%2F%3E%3CmxCell%20id%3D%222%22%20value%3D%22%E7%BB%93%E6%9E%9Cdashboard%26lt%3Bdiv%26gt%3B3%26lt%3B%2Fdiv%26gt%3B%22%20style%3D%22html%3D1%3Bdashed%3D0%3BwhiteSpace%3Dwrap%3B%22%20vertex%3D%221%22%20parent%3D%221%22%3E%3CmxGeometry%20x%3D%22270%22%20y%3D%22560%22%20width%3D%22100%22%20height%3D%2290%22%20as%3D%22geometry%22%2F%3E%3C%2FmxCell%3E%3C%2Froot%3E%3C%2FmxGraphModel%3E&lt;/span&gt;&lt;/div&gt;" style="html=1;dashed=0;whiteSpace=wrap;rounded=1;" vertex="1" parent="WIyWlLk6GJQsqaUBKTNV-1">
          <mxGeometry x="1495" y="2030" width="100" height="90" as="geometry" />
        </mxCell>
        <mxCell id="5AW3J-fh9Zgp_AAcRgvr-107" value="注册信息" style="edgeStyle=orthogonalEdgeStyle;rounded=0;orthogonalLoop=1;jettySize=auto;html=1;exitX=1;exitY=0.5;exitDx=0;exitDy=0;entryX=0;entryY=0.5;entryDx=0;entryDy=0;" edge="1" parent="WIyWlLk6GJQsqaUBKTNV-1" source="5AW3J-fh9Zgp_AAcRgvr-95" target="5AW3J-fh9Zgp_AAcRgvr-86">
          <mxGeometry relative="1" as="geometry">
            <Array as="points" />
          </mxGeometry>
        </mxCell>
        <mxCell id="5AW3J-fh9Zgp_AAcRgvr-112" style="edgeStyle=orthogonalEdgeStyle;rounded=0;orthogonalLoop=1;jettySize=auto;html=1;exitX=1;exitY=0.75;exitDx=0;exitDy=0;entryX=0;entryY=0.75;entryDx=0;entryDy=0;" edge="1" parent="WIyWlLk6GJQsqaUBKTNV-1" source="5AW3J-fh9Zgp_AAcRgvr-95" target="5AW3J-fh9Zgp_AAcRgvr-86">
          <mxGeometry relative="1" as="geometry" />
        </mxCell>
        <mxCell id="5AW3J-fh9Zgp_AAcRgvr-113" value="登录信息" style="edgeLabel;html=1;align=center;verticalAlign=middle;resizable=0;points=[];" vertex="1" connectable="0" parent="5AW3J-fh9Zgp_AAcRgvr-112">
          <mxGeometry x="-0.1818" y="3" relative="1" as="geometry">
            <mxPoint as="offset" />
          </mxGeometry>
        </mxCell>
        <mxCell id="5AW3J-fh9Zgp_AAcRgvr-114" value="仪表盘内容" style="edgeStyle=orthogonalEdgeStyle;rounded=0;orthogonalLoop=1;jettySize=auto;html=1;exitX=0;exitY=0.5;exitDx=0;exitDy=0;entryX=0.25;entryY=1;entryDx=0;entryDy=0;" edge="1" parent="WIyWlLk6GJQsqaUBKTNV-1" source="5AW3J-fh9Zgp_AAcRgvr-95" target="5AW3J-fh9Zgp_AAcRgvr-84">
          <mxGeometry relative="1" as="geometry" />
        </mxCell>
        <mxCell id="5AW3J-fh9Zgp_AAcRgvr-117" value="用户对话" style="edgeStyle=orthogonalEdgeStyle;rounded=0;orthogonalLoop=1;jettySize=auto;html=1;exitX=0.25;exitY=1;exitDx=0;exitDy=0;entryX=1;entryY=0.5;entryDx=0;entryDy=0;" edge="1" parent="WIyWlLk6GJQsqaUBKTNV-1" source="5AW3J-fh9Zgp_AAcRgvr-95" target="5AW3J-fh9Zgp_AAcRgvr-88">
          <mxGeometry relative="1" as="geometry">
            <Array as="points">
              <mxPoint x="945" y="2570" />
              <mxPoint x="1700" y="2570" />
              <mxPoint x="1700" y="2395" />
            </Array>
          </mxGeometry>
        </mxCell>
        <mxCell id="5AW3J-fh9Zgp_AAcRgvr-118" value="用户声音数据" style="edgeStyle=orthogonalEdgeStyle;rounded=0;orthogonalLoop=1;jettySize=auto;html=1;exitX=1;exitY=0.25;exitDx=0;exitDy=0;entryX=0.5;entryY=0;entryDx=0;entryDy=0;" edge="1" parent="WIyWlLk6GJQsqaUBKTNV-1" source="5AW3J-fh9Zgp_AAcRgvr-95" target="5AW3J-fh9Zgp_AAcRgvr-93">
          <mxGeometry relative="1" as="geometry">
            <Array as="points">
              <mxPoint x="1070" y="2052" />
              <mxPoint x="1070" y="2010" />
              <mxPoint x="1545" y="2010" />
            </Array>
          </mxGeometry>
        </mxCell>
        <mxCell id="5AW3J-fh9Zgp_AAcRgvr-290" value="调用" style="edgeStyle=orthogonalEdgeStyle;shape=connector;rounded=0;orthogonalLoop=1;jettySize=auto;html=1;exitX=0.75;exitY=1;exitDx=0;exitDy=0;entryX=0;entryY=0.25;entryDx=0;entryDy=0;strokeColor=default;align=center;verticalAlign=middle;fontFamily=Helvetica;fontSize=11;fontColor=default;labelBackgroundColor=default;endArrow=classic;" edge="1" parent="WIyWlLk6GJQsqaUBKTNV-1" source="5AW3J-fh9Zgp_AAcRgvr-95" target="5AW3J-fh9Zgp_AAcRgvr-90">
          <mxGeometry relative="1" as="geometry" />
        </mxCell>
        <mxCell id="5AW3J-fh9Zgp_AAcRgvr-95" value="操作界面&lt;div&gt;1&lt;/div&gt;" style="html=1;dashed=0;whiteSpace=wrap;rotation=0;rounded=1;" vertex="1" parent="WIyWlLk6GJQsqaUBKTNV-1">
          <mxGeometry x="920" y="2030" width="100" height="90" as="geometry" />
        </mxCell>
        <mxCell id="5AW3J-fh9Zgp_AAcRgvr-96" value="用户信息" style="edgeStyle=orthogonalEdgeStyle;rounded=0;orthogonalLoop=1;jettySize=auto;html=1;exitX=1;exitY=0.5;exitDx=0;exitDy=0;entryX=1;entryY=0.5;entryDx=0;entryDy=0;" edge="1" parent="WIyWlLk6GJQsqaUBKTNV-1" source="5AW3J-fh9Zgp_AAcRgvr-99" target="5AW3J-fh9Zgp_AAcRgvr-86">
          <mxGeometry relative="1" as="geometry">
            <mxPoint x="1235" y="2080" as="targetPoint" />
            <Array as="points">
              <mxPoint x="1315" y="2250" />
              <mxPoint x="1315" y="2075" />
            </Array>
          </mxGeometry>
        </mxCell>
        <mxCell id="5AW3J-fh9Zgp_AAcRgvr-99" value="D1&amp;nbsp; &amp;nbsp;用户信息" style="html=1;dashed=0;whiteSpace=wrap;shape=mxgraph.dfd.dataStoreID;align=left;spacingLeft=3;points=[[0,0],[0.5,0],[1,0],[0,0.5],[1,0.5],[0,1],[0.5,1],[1,1]];" vertex="1" parent="WIyWlLk6GJQsqaUBKTNV-1">
          <mxGeometry x="1115" y="2230" width="140" height="40" as="geometry" />
        </mxCell>
        <mxCell id="5AW3J-fh9Zgp_AAcRgvr-101" value="" style="edgeStyle=orthogonalEdgeStyle;rounded=0;orthogonalLoop=1;jettySize=auto;html=1;exitX=0.75;exitY=1;exitDx=0;exitDy=0;" edge="1" parent="WIyWlLk6GJQsqaUBKTNV-1" source="5AW3J-fh9Zgp_AAcRgvr-93" target="5AW3J-fh9Zgp_AAcRgvr-88">
          <mxGeometry relative="1" as="geometry">
            <mxPoint x="1545" y="2160" as="sourcePoint" />
          </mxGeometry>
        </mxCell>
        <mxCell id="5AW3J-fh9Zgp_AAcRgvr-168" value="用户检测结果（llm)" style="edgeLabel;html=1;align=center;verticalAlign=middle;resizable=0;points=[];" vertex="1" connectable="0" parent="5AW3J-fh9Zgp_AAcRgvr-101">
          <mxGeometry x="-0.4772" y="-1" relative="1" as="geometry">
            <mxPoint x="51" as="offset" />
          </mxGeometry>
        </mxCell>
        <mxCell id="5AW3J-fh9Zgp_AAcRgvr-122" value="历史数据指标" style="edgeStyle=orthogonalEdgeStyle;rounded=0;orthogonalLoop=1;jettySize=auto;html=1;exitX=0.5;exitY=1;exitDx=0;exitDy=0;entryX=1;entryY=0.5;entryDx=0;entryDy=0;" edge="1" parent="WIyWlLk6GJQsqaUBKTNV-1" source="5AW3J-fh9Zgp_AAcRgvr-102" target="5AW3J-fh9Zgp_AAcRgvr-90">
          <mxGeometry relative="1" as="geometry" />
        </mxCell>
        <mxCell id="5AW3J-fh9Zgp_AAcRgvr-102" value="D2&amp;nbsp; &amp;nbsp;数据指标" style="html=1;dashed=0;whiteSpace=wrap;shape=mxgraph.dfd.dataStoreID;align=left;spacingLeft=3;points=[[0,0],[0.5,0],[1,0],[0,0.5],[1,0.5],[0,1],[0.5,1],[1,1]];" vertex="1" parent="WIyWlLk6GJQsqaUBKTNV-1">
          <mxGeometry x="1390" y="2230" width="140" height="40" as="geometry" />
        </mxCell>
        <mxCell id="5AW3J-fh9Zgp_AAcRgvr-103" value="历史检测信息" style="edgeStyle=orthogonalEdgeStyle;rounded=0;orthogonalLoop=1;jettySize=auto;html=1;exitX=1;exitY=0.5;exitDx=0;exitDy=0;entryX=1;entryY=0.75;entryDx=0;entryDy=0;" edge="1" parent="WIyWlLk6GJQsqaUBKTNV-1" source="5AW3J-fh9Zgp_AAcRgvr-104" target="5AW3J-fh9Zgp_AAcRgvr-88">
          <mxGeometry relative="1" as="geometry">
            <Array as="points">
              <mxPoint x="1670" y="2540" />
              <mxPoint x="1670" y="2417" />
            </Array>
          </mxGeometry>
        </mxCell>
        <mxCell id="5AW3J-fh9Zgp_AAcRgvr-339" value="历史诊断" style="edgeStyle=orthogonalEdgeStyle;shape=connector;rounded=0;orthogonalLoop=1;jettySize=auto;html=1;exitX=0;exitY=0.5;exitDx=0;exitDy=0;entryX=0.5;entryY=1;entryDx=0;entryDy=0;strokeColor=default;align=center;verticalAlign=middle;fontFamily=Helvetica;fontSize=11;fontColor=default;labelBackgroundColor=default;endArrow=classic;" edge="1" parent="WIyWlLk6GJQsqaUBKTNV-1" source="5AW3J-fh9Zgp_AAcRgvr-104" target="5AW3J-fh9Zgp_AAcRgvr-90">
          <mxGeometry relative="1" as="geometry" />
        </mxCell>
        <mxCell id="5AW3J-fh9Zgp_AAcRgvr-104" value="D3&amp;nbsp; &amp;nbsp;诊断记录" style="html=1;dashed=0;whiteSpace=wrap;shape=mxgraph.dfd.dataStoreID;align=left;spacingLeft=3;points=[[0,0],[0.5,0],[1,0],[0,0.5],[1,0.5],[0,1],[0.5,1],[1,1]];" vertex="1" parent="WIyWlLk6GJQsqaUBKTNV-1">
          <mxGeometry x="1475" y="2519.92" width="140" height="40" as="geometry" />
        </mxCell>
        <mxCell id="5AW3J-fh9Zgp_AAcRgvr-105" value="本次诊断结果" style="edgeStyle=orthogonalEdgeStyle;rounded=0;orthogonalLoop=1;jettySize=auto;html=1;exitX=0.5;exitY=1;exitDx=0;exitDy=0;entryX=0.5;entryY=0;entryDx=0;entryDy=0;" edge="1" parent="WIyWlLk6GJQsqaUBKTNV-1" source="5AW3J-fh9Zgp_AAcRgvr-88" target="5AW3J-fh9Zgp_AAcRgvr-104">
          <mxGeometry relative="1" as="geometry">
            <mxPoint x="1475" y="2509.92" as="targetPoint" />
          </mxGeometry>
        </mxCell>
        <mxCell id="5AW3J-fh9Zgp_AAcRgvr-126" value="用户注册" style="edgeStyle=orthogonalEdgeStyle;rounded=0;orthogonalLoop=1;jettySize=auto;html=1;entryX=0;entryY=0.25;entryDx=0;entryDy=0;exitX=0.25;exitY=0;exitDx=0;exitDy=0;" edge="1" parent="WIyWlLk6GJQsqaUBKTNV-1" source="5AW3J-fh9Zgp_AAcRgvr-130" target="5AW3J-fh9Zgp_AAcRgvr-192">
          <mxGeometry relative="1" as="geometry">
            <mxPoint x="841.25" y="3095" as="sourcePoint" />
            <mxPoint x="921.25" y="3082.5" as="targetPoint" />
            <Array as="points">
              <mxPoint x="714.25" y="2895" />
            </Array>
          </mxGeometry>
        </mxCell>
        <mxCell id="5AW3J-fh9Zgp_AAcRgvr-127" value="用户登录" style="edgeStyle=orthogonalEdgeStyle;rounded=0;orthogonalLoop=1;jettySize=auto;html=1;exitX=0.75;exitY=0;exitDx=0;exitDy=0;entryX=0;entryY=0.75;entryDx=0;entryDy=0;" edge="1" parent="WIyWlLk6GJQsqaUBKTNV-1" source="5AW3J-fh9Zgp_AAcRgvr-130" target="5AW3J-fh9Zgp_AAcRgvr-192">
          <mxGeometry relative="1" as="geometry">
            <Array as="points">
              <mxPoint x="758.25" y="2925" />
            </Array>
            <mxPoint x="946.25" y="3060" as="targetPoint" />
          </mxGeometry>
        </mxCell>
        <mxCell id="5AW3J-fh9Zgp_AAcRgvr-128" value="大模型对话" style="edgeStyle=orthogonalEdgeStyle;rounded=0;orthogonalLoop=1;jettySize=auto;html=1;exitX=1;exitY=0.75;exitDx=0;exitDy=0;entryX=0;entryY=0.25;entryDx=0;entryDy=0;" edge="1" parent="WIyWlLk6GJQsqaUBKTNV-1" source="5AW3J-fh9Zgp_AAcRgvr-130" target="5AW3J-fh9Zgp_AAcRgvr-196">
          <mxGeometry relative="1" as="geometry">
            <Array as="points">
              <mxPoint x="1021.25" y="3027" />
              <mxPoint x="1021.25" y="3085" />
            </Array>
            <mxPoint x="971.25" y="3060" as="targetPoint" />
          </mxGeometry>
        </mxCell>
        <mxCell id="5AW3J-fh9Zgp_AAcRgvr-129" value="声音数据" style="edgeStyle=orthogonalEdgeStyle;rounded=0;orthogonalLoop=1;jettySize=auto;html=1;exitX=1;exitY=0.25;exitDx=0;exitDy=0;entryX=0;entryY=0.5;entryDx=0;entryDy=0;" edge="1" parent="WIyWlLk6GJQsqaUBKTNV-1" source="5AW3J-fh9Zgp_AAcRgvr-130" target="5AW3J-fh9Zgp_AAcRgvr-194">
          <mxGeometry relative="1" as="geometry">
            <mxPoint x="996.25" y="3060" as="targetPoint" />
            <Array as="points">
              <mxPoint x="781.25" y="3010" />
            </Array>
          </mxGeometry>
        </mxCell>
        <mxCell id="5AW3J-fh9Zgp_AAcRgvr-130" value="用户" style="html=1;dashed=0;whiteSpace=wrap;" vertex="1" parent="WIyWlLk6GJQsqaUBKTNV-1">
          <mxGeometry x="706.25" y="2990" width="90" height="50" as="geometry" />
        </mxCell>
        <mxCell id="5AW3J-fh9Zgp_AAcRgvr-132" value="用户对应界面" style="edgeStyle=orthogonalEdgeStyle;rounded=0;orthogonalLoop=1;jettySize=auto;html=1;exitX=0;exitY=0.25;exitDx=0;exitDy=0;entryX=0.5;entryY=0;entryDx=0;entryDy=0;" edge="1" parent="WIyWlLk6GJQsqaUBKTNV-1" source="5AW3J-fh9Zgp_AAcRgvr-159" target="5AW3J-fh9Zgp_AAcRgvr-192">
          <mxGeometry relative="1" as="geometry">
            <mxPoint x="1271.25" y="3000" as="targetPoint" />
            <Array as="points" />
            <mxPoint x="1401.25" y="2990" as="sourcePoint" />
          </mxGeometry>
        </mxCell>
        <mxCell id="5AW3J-fh9Zgp_AAcRgvr-140" style="edgeStyle=orthogonalEdgeStyle;rounded=0;orthogonalLoop=1;jettySize=auto;html=1;exitX=0.5;exitY=1;exitDx=0;exitDy=0;entryX=0.75;entryY=0;entryDx=0;entryDy=0;" edge="1" parent="WIyWlLk6GJQsqaUBKTNV-1" source="5AW3J-fh9Zgp_AAcRgvr-180" target="5AW3J-fh9Zgp_AAcRgvr-304">
          <mxGeometry relative="1" as="geometry">
            <Array as="points">
              <mxPoint x="1676" y="3050" />
              <mxPoint x="1445" y="3050" />
            </Array>
            <mxPoint x="1553.75" y="3050" as="sourcePoint" />
            <mxPoint x="2056.25" y="3190" as="targetPoint" />
          </mxGeometry>
        </mxCell>
        <mxCell id="5AW3J-fh9Zgp_AAcRgvr-182" value="用户检测结果（dash)" style="edgeLabel;html=1;align=center;verticalAlign=middle;resizable=0;points=[];" vertex="1" connectable="0" parent="5AW3J-fh9Zgp_AAcRgvr-140">
          <mxGeometry x="-0.5479" y="-1" relative="1" as="geometry">
            <mxPoint x="-22" y="21" as="offset" />
          </mxGeometry>
        </mxCell>
        <mxCell id="5AW3J-fh9Zgp_AAcRgvr-142" value="注册信息" style="edgeStyle=orthogonalEdgeStyle;rounded=0;orthogonalLoop=1;jettySize=auto;html=1;exitX=0.25;exitY=0;exitDx=0;exitDy=0;entryX=0;entryY=0.5;entryDx=0;entryDy=0;" edge="1" parent="WIyWlLk6GJQsqaUBKTNV-1" source="5AW3J-fh9Zgp_AAcRgvr-192" target="5AW3J-fh9Zgp_AAcRgvr-158">
          <mxGeometry relative="1" as="geometry">
            <Array as="points">
              <mxPoint x="1080.25" y="2670" />
            </Array>
            <mxPoint x="1296.25" y="2925" as="sourcePoint" />
            <mxPoint x="1411.25" y="2925" as="targetPoint" />
          </mxGeometry>
        </mxCell>
        <mxCell id="5AW3J-fh9Zgp_AAcRgvr-143" style="edgeStyle=orthogonalEdgeStyle;rounded=0;orthogonalLoop=1;jettySize=auto;html=1;exitX=0.75;exitY=0;exitDx=0;exitDy=0;entryX=0;entryY=0.75;entryDx=0;entryDy=0;" edge="1" parent="WIyWlLk6GJQsqaUBKTNV-1" source="5AW3J-fh9Zgp_AAcRgvr-192" target="5AW3J-fh9Zgp_AAcRgvr-159">
          <mxGeometry relative="1" as="geometry">
            <mxPoint x="1296.25" y="2947.5" as="sourcePoint" />
            <mxPoint x="1371.25" y="3000" as="targetPoint" />
            <Array as="points">
              <mxPoint x="1120.25" y="2755" />
            </Array>
          </mxGeometry>
        </mxCell>
        <mxCell id="5AW3J-fh9Zgp_AAcRgvr-144" value="登录信息" style="edgeLabel;html=1;align=center;verticalAlign=middle;resizable=0;points=[];" vertex="1" connectable="0" parent="5AW3J-fh9Zgp_AAcRgvr-143">
          <mxGeometry x="-0.1818" y="3" relative="1" as="geometry">
            <mxPoint as="offset" />
          </mxGeometry>
        </mxCell>
        <mxCell id="5AW3J-fh9Zgp_AAcRgvr-145" value="仪表盘内容" style="edgeStyle=orthogonalEdgeStyle;rounded=0;orthogonalLoop=1;jettySize=auto;html=1;exitX=0;exitY=0.75;exitDx=0;exitDy=0;entryX=0.5;entryY=1;entryDx=0;entryDy=0;" edge="1" parent="WIyWlLk6GJQsqaUBKTNV-1" source="5AW3J-fh9Zgp_AAcRgvr-196" target="5AW3J-fh9Zgp_AAcRgvr-130">
          <mxGeometry relative="1" as="geometry">
            <mxPoint x="921.25" y="3105" as="sourcePoint" />
          </mxGeometry>
        </mxCell>
        <mxCell id="5AW3J-fh9Zgp_AAcRgvr-147" value="用户声音数据" style="edgeStyle=orthogonalEdgeStyle;rounded=0;orthogonalLoop=1;jettySize=auto;html=1;exitX=1;exitY=0.5;exitDx=0;exitDy=0;entryX=0;entryY=0.5;entryDx=0;entryDy=0;" edge="1" parent="WIyWlLk6GJQsqaUBKTNV-1" source="5AW3J-fh9Zgp_AAcRgvr-194" target="5AW3J-fh9Zgp_AAcRgvr-164">
          <mxGeometry x="-0.1446" relative="1" as="geometry">
            <Array as="points">
              <mxPoint x="1396.25" y="3010" />
              <mxPoint x="1396.25" y="2820" />
            </Array>
            <mxPoint x="1671.25" y="2830" as="sourcePoint" />
            <mxPoint x="1781.25" y="2830" as="targetPoint" />
            <mxPoint x="1" as="offset" />
          </mxGeometry>
        </mxCell>
        <mxCell id="5AW3J-fh9Zgp_AAcRgvr-149" value="用户信息" style="edgeStyle=orthogonalEdgeStyle;rounded=0;orthogonalLoop=1;jettySize=auto;html=1;exitX=0.5;exitY=0;exitDx=0;exitDy=0;entryX=0.5;entryY=1;entryDx=0;entryDy=0;" edge="1" parent="WIyWlLk6GJQsqaUBKTNV-1" source="5AW3J-fh9Zgp_AAcRgvr-150" target="5AW3J-fh9Zgp_AAcRgvr-159">
          <mxGeometry relative="1" as="geometry">
            <mxPoint x="1316.2500000000002" y="2740" as="targetPoint" />
            <Array as="points">
              <mxPoint x="1236.2500000000002" y="2810" />
              <mxPoint x="1236.2500000000002" y="2810" />
            </Array>
          </mxGeometry>
        </mxCell>
        <mxCell id="5AW3J-fh9Zgp_AAcRgvr-150" value="D1&amp;nbsp; &amp;nbsp;用户信息" style="html=1;dashed=0;whiteSpace=wrap;shape=mxgraph.dfd.dataStoreID;align=left;spacingLeft=3;points=[[0,0],[0.5,0],[1,0],[0,0.5],[1,0.5],[0,1],[0.5,1],[1,1]];" vertex="1" parent="WIyWlLk6GJQsqaUBKTNV-1">
          <mxGeometry x="1166.25" y="2810" width="140" height="40" as="geometry" />
        </mxCell>
        <mxCell id="5AW3J-fh9Zgp_AAcRgvr-308" style="edgeStyle=orthogonalEdgeStyle;shape=connector;rounded=0;orthogonalLoop=1;jettySize=auto;html=1;strokeColor=default;align=center;verticalAlign=middle;fontFamily=Helvetica;fontSize=11;fontColor=default;labelBackgroundColor=default;endArrow=classic;exitX=0.5;exitY=1;exitDx=0;exitDy=0;entryX=0.5;entryY=0;entryDx=0;entryDy=0;" edge="1" parent="WIyWlLk6GJQsqaUBKTNV-1" source="5AW3J-fh9Zgp_AAcRgvr-153" target="5AW3J-fh9Zgp_AAcRgvr-300">
          <mxGeometry relative="1" as="geometry">
            <mxPoint x="1506.25" y="3070" as="sourcePoint" />
            <mxPoint x="1406.25" y="3240" as="targetPoint" />
            <Array as="points">
              <mxPoint x="1364" y="3130" />
              <mxPoint x="1290" y="3130" />
              <mxPoint x="1290" y="3190" />
            </Array>
          </mxGeometry>
        </mxCell>
        <mxCell id="5AW3J-fh9Zgp_AAcRgvr-309" value="历史数据" style="edgeLabel;html=1;align=center;verticalAlign=middle;resizable=0;points=[];fontFamily=Helvetica;fontSize=11;fontColor=default;labelBackgroundColor=default;" vertex="1" connectable="0" parent="5AW3J-fh9Zgp_AAcRgvr-308">
          <mxGeometry x="0.0584" y="-3" relative="1" as="geometry">
            <mxPoint y="-3" as="offset" />
          </mxGeometry>
        </mxCell>
        <mxCell id="5AW3J-fh9Zgp_AAcRgvr-153" value="D2&amp;nbsp; &amp;nbsp;数据指标" style="html=1;dashed=0;whiteSpace=wrap;shape=mxgraph.dfd.dataStoreID;align=left;spacingLeft=3;points=[[0,0],[0.5,0],[1,0],[0,0.5],[1,0.5],[0,1],[0.5,1],[1,1]];" vertex="1" parent="WIyWlLk6GJQsqaUBKTNV-1">
          <mxGeometry x="1293.75" y="3050" width="140" height="40" as="geometry" />
        </mxCell>
        <mxCell id="5AW3J-fh9Zgp_AAcRgvr-163" value="用户信息" style="edgeStyle=orthogonalEdgeStyle;rounded=0;orthogonalLoop=1;jettySize=auto;html=1;exitX=1;exitY=0.5;exitDx=0;exitDy=0;entryX=1;entryY=0.5;entryDx=0;entryDy=0;" edge="1" parent="WIyWlLk6GJQsqaUBKTNV-1" source="5AW3J-fh9Zgp_AAcRgvr-158" target="5AW3J-fh9Zgp_AAcRgvr-150">
          <mxGeometry relative="1" as="geometry" />
        </mxCell>
        <mxCell id="5AW3J-fh9Zgp_AAcRgvr-158" value="用户注册事务&lt;div&gt;2.1&lt;/div&gt;" style="html=1;dashed=0;whiteSpace=wrap;rounded=1;" vertex="1" parent="WIyWlLk6GJQsqaUBKTNV-1">
          <mxGeometry x="1196.2500000000002" y="2640" width="80" height="60" as="geometry" />
        </mxCell>
        <mxCell id="5AW3J-fh9Zgp_AAcRgvr-159" value="用户登陆事务&lt;div&gt;2.2&lt;/div&gt;" style="html=1;dashed=0;whiteSpace=wrap;rounded=1;" vertex="1" parent="WIyWlLk6GJQsqaUBKTNV-1">
          <mxGeometry x="1196.2500000000002" y="2710" width="80" height="60" as="geometry" />
        </mxCell>
        <mxCell id="5AW3J-fh9Zgp_AAcRgvr-166" style="edgeStyle=orthogonalEdgeStyle;rounded=0;orthogonalLoop=1;jettySize=auto;html=1;exitX=0.5;exitY=1;exitDx=0;exitDy=0;entryX=0.5;entryY=0;entryDx=0;entryDy=0;" edge="1" parent="WIyWlLk6GJQsqaUBKTNV-1" source="5AW3J-fh9Zgp_AAcRgvr-164" target="5AW3J-fh9Zgp_AAcRgvr-165">
          <mxGeometry relative="1" as="geometry" />
        </mxCell>
        <mxCell id="5AW3J-fh9Zgp_AAcRgvr-164" value="特征提取&lt;br&gt;&lt;div&gt;4.1&lt;/div&gt;" style="html=1;dashed=0;whiteSpace=wrap;rounded=1;" vertex="1" parent="WIyWlLk6GJQsqaUBKTNV-1">
          <mxGeometry x="1636.25" y="2789.86" width="80" height="60" as="geometry" />
        </mxCell>
        <mxCell id="5AW3J-fh9Zgp_AAcRgvr-181" style="edgeStyle=orthogonalEdgeStyle;rounded=0;orthogonalLoop=1;jettySize=auto;html=1;exitX=0.5;exitY=1;exitDx=0;exitDy=0;entryX=0.5;entryY=0;entryDx=0;entryDy=0;" edge="1" parent="WIyWlLk6GJQsqaUBKTNV-1" source="5AW3J-fh9Zgp_AAcRgvr-165" target="5AW3J-fh9Zgp_AAcRgvr-180">
          <mxGeometry relative="1" as="geometry" />
        </mxCell>
        <mxCell id="5AW3J-fh9Zgp_AAcRgvr-165" value="语音模型&lt;br&gt;&lt;div&gt;4.2&lt;/div&gt;" style="html=1;dashed=0;whiteSpace=wrap;rounded=1;" vertex="1" parent="WIyWlLk6GJQsqaUBKTNV-1">
          <mxGeometry x="1636.25" y="2869.86" width="80" height="60" as="geometry" />
        </mxCell>
        <mxCell id="5AW3J-fh9Zgp_AAcRgvr-183" style="edgeStyle=orthogonalEdgeStyle;rounded=0;orthogonalLoop=1;jettySize=auto;html=1;exitX=0.75;exitY=1;exitDx=0;exitDy=0;entryX=0.5;entryY=0;entryDx=0;entryDy=0;" edge="1" parent="WIyWlLk6GJQsqaUBKTNV-1" source="5AW3J-fh9Zgp_AAcRgvr-180" target="5AW3J-fh9Zgp_AAcRgvr-321">
          <mxGeometry relative="1" as="geometry">
            <mxPoint x="1676.25" y="3129.86" as="targetPoint" />
          </mxGeometry>
        </mxCell>
        <mxCell id="5AW3J-fh9Zgp_AAcRgvr-186" value="用户检测结果（llm)" style="edgeLabel;html=1;align=center;verticalAlign=middle;resizable=0;points=[];" vertex="1" connectable="0" parent="5AW3J-fh9Zgp_AAcRgvr-183">
          <mxGeometry x="-0.25" y="1" relative="1" as="geometry">
            <mxPoint x="-1" y="21" as="offset" />
          </mxGeometry>
        </mxCell>
        <mxCell id="5AW3J-fh9Zgp_AAcRgvr-184" style="edgeStyle=orthogonalEdgeStyle;rounded=0;orthogonalLoop=1;jettySize=auto;html=1;entryX=0.5;entryY=0;entryDx=0;entryDy=0;exitX=0.25;exitY=1;exitDx=0;exitDy=0;" edge="1" parent="WIyWlLk6GJQsqaUBKTNV-1" source="5AW3J-fh9Zgp_AAcRgvr-180" target="5AW3J-fh9Zgp_AAcRgvr-153">
          <mxGeometry relative="1" as="geometry">
            <mxPoint x="1526.25" y="2980" as="sourcePoint" />
          </mxGeometry>
        </mxCell>
        <mxCell id="5AW3J-fh9Zgp_AAcRgvr-328" value="用户检测结果（db）" style="edgeLabel;html=1;align=center;verticalAlign=middle;resizable=0;points=[];fontFamily=Helvetica;fontSize=11;fontColor=default;labelBackgroundColor=default;" vertex="1" connectable="0" parent="5AW3J-fh9Zgp_AAcRgvr-184">
          <mxGeometry x="-0.2011" y="-2" relative="1" as="geometry">
            <mxPoint as="offset" />
          </mxGeometry>
        </mxCell>
        <mxCell id="5AW3J-fh9Zgp_AAcRgvr-180" value="数据发送事务&lt;br&gt;&lt;div&gt;4.3&lt;/div&gt;" style="html=1;dashed=0;whiteSpace=wrap;rounded=1;" vertex="1" parent="WIyWlLk6GJQsqaUBKTNV-1">
          <mxGeometry x="1636.25" y="2949.86" width="80" height="60" as="geometry" />
        </mxCell>
        <mxCell id="5AW3J-fh9Zgp_AAcRgvr-201" value="跳转" style="edgeStyle=orthogonalEdgeStyle;rounded=0;orthogonalLoop=1;jettySize=auto;html=1;exitX=0.5;exitY=1;exitDx=0;exitDy=0;entryX=0.5;entryY=0;entryDx=0;entryDy=0;" edge="1" parent="WIyWlLk6GJQsqaUBKTNV-1" source="5AW3J-fh9Zgp_AAcRgvr-192" target="5AW3J-fh9Zgp_AAcRgvr-194">
          <mxGeometry relative="1" as="geometry" />
        </mxCell>
        <mxCell id="5AW3J-fh9Zgp_AAcRgvr-192" value="用户登录注册页面&lt;div&gt;1.1&lt;/div&gt;" style="html=1;dashed=0;whiteSpace=wrap;rounded=1;" vertex="1" parent="WIyWlLk6GJQsqaUBKTNV-1">
          <mxGeometry x="1060.62" y="2880" width="80" height="60" as="geometry" />
        </mxCell>
        <mxCell id="5AW3J-fh9Zgp_AAcRgvr-198" value="跳转" style="edgeStyle=orthogonalEdgeStyle;rounded=0;orthogonalLoop=1;jettySize=auto;html=1;exitX=0.25;exitY=1;exitDx=0;exitDy=0;entryX=0.25;entryY=0;entryDx=0;entryDy=0;" edge="1" parent="WIyWlLk6GJQsqaUBKTNV-1" source="5AW3J-fh9Zgp_AAcRgvr-194" target="5AW3J-fh9Zgp_AAcRgvr-196">
          <mxGeometry relative="1" as="geometry" />
        </mxCell>
        <mxCell id="5AW3J-fh9Zgp_AAcRgvr-194" value="主页面&lt;div&gt;1.2&lt;/div&gt;" style="html=1;dashed=0;whiteSpace=wrap;rounded=1;" vertex="1" parent="WIyWlLk6GJQsqaUBKTNV-1">
          <mxGeometry x="1061.25" y="2980" width="80" height="60" as="geometry" />
        </mxCell>
        <mxCell id="5AW3J-fh9Zgp_AAcRgvr-199" value="跳转" style="edgeStyle=orthogonalEdgeStyle;rounded=0;orthogonalLoop=1;jettySize=auto;html=1;exitX=0.75;exitY=0;exitDx=0;exitDy=0;entryX=0.75;entryY=1;entryDx=0;entryDy=0;" edge="1" parent="WIyWlLk6GJQsqaUBKTNV-1" source="5AW3J-fh9Zgp_AAcRgvr-196" target="5AW3J-fh9Zgp_AAcRgvr-194">
          <mxGeometry relative="1" as="geometry" />
        </mxCell>
        <mxCell id="5AW3J-fh9Zgp_AAcRgvr-332" value="调用" style="edgeStyle=orthogonalEdgeStyle;shape=connector;rounded=0;orthogonalLoop=1;jettySize=auto;html=1;exitX=0.5;exitY=1;exitDx=0;exitDy=0;strokeColor=default;align=center;verticalAlign=middle;fontFamily=Helvetica;fontSize=11;fontColor=default;labelBackgroundColor=default;endArrow=classic;entryX=0.25;entryY=1;entryDx=0;entryDy=0;" edge="1" parent="WIyWlLk6GJQsqaUBKTNV-1" source="5AW3J-fh9Zgp_AAcRgvr-196" target="5AW3J-fh9Zgp_AAcRgvr-304">
          <mxGeometry relative="1" as="geometry">
            <mxPoint x="1436.25" y="3470" as="targetPoint" />
            <Array as="points">
              <mxPoint x="1101" y="3430" />
              <mxPoint x="1403" y="3430" />
            </Array>
          </mxGeometry>
        </mxCell>
        <mxCell id="5AW3J-fh9Zgp_AAcRgvr-342" value="用户对话" style="edgeStyle=orthogonalEdgeStyle;shape=connector;rounded=0;orthogonalLoop=1;jettySize=auto;html=1;exitX=0.25;exitY=1;exitDx=0;exitDy=0;entryX=1;entryY=0.5;entryDx=0;entryDy=0;strokeColor=default;align=center;verticalAlign=middle;fontFamily=Helvetica;fontSize=11;fontColor=default;labelBackgroundColor=default;endArrow=classic;" edge="1" parent="WIyWlLk6GJQsqaUBKTNV-1" source="5AW3J-fh9Zgp_AAcRgvr-196" target="5AW3J-fh9Zgp_AAcRgvr-321">
          <mxGeometry relative="1" as="geometry">
            <Array as="points">
              <mxPoint x="1081.25" y="3520" />
              <mxPoint x="1836.25" y="3520" />
              <mxPoint x="1836.25" y="3170" />
            </Array>
          </mxGeometry>
        </mxCell>
        <mxCell id="5AW3J-fh9Zgp_AAcRgvr-196" value="&lt;div&gt;&lt;span style=&quot;background-color: transparent; color: light-dark(rgb(0, 0, 0), rgb(255, 255, 255));&quot;&gt;dashboard页面&lt;/span&gt;&lt;/div&gt;&lt;div&gt;&lt;span style=&quot;background-color: transparent; color: light-dark(rgb(0, 0, 0), rgb(255, 255, 255));&quot;&gt;1.3&lt;/span&gt;&lt;/div&gt;" style="html=1;dashed=0;whiteSpace=wrap;rounded=1;" vertex="1" parent="WIyWlLk6GJQsqaUBKTNV-1">
          <mxGeometry x="1061.25" y="3070" width="80" height="60" as="geometry" />
        </mxCell>
        <mxCell id="5AW3J-fh9Zgp_AAcRgvr-223" style="rounded=0;orthogonalLoop=1;jettySize=auto;html=1;exitX=0.5;exitY=1;exitDx=0;exitDy=0;endArrow=none;startFill=0;entryX=0.5;entryY=0;entryDx=0;entryDy=0;" edge="1" parent="WIyWlLk6GJQsqaUBKTNV-1" source="5AW3J-fh9Zgp_AAcRgvr-208" target="5AW3J-fh9Zgp_AAcRgvr-224">
          <mxGeometry relative="1" as="geometry">
            <mxPoint x="1053.75" y="3800" as="targetPoint" />
          </mxGeometry>
        </mxCell>
        <mxCell id="5AW3J-fh9Zgp_AAcRgvr-227" style="rounded=0;orthogonalLoop=1;jettySize=auto;html=1;exitX=0.5;exitY=1;exitDx=0;exitDy=0;endArrow=none;startFill=0;entryX=0.5;entryY=0;entryDx=0;entryDy=0;" edge="1" parent="WIyWlLk6GJQsqaUBKTNV-1" source="5AW3J-fh9Zgp_AAcRgvr-208" target="5AW3J-fh9Zgp_AAcRgvr-226">
          <mxGeometry relative="1" as="geometry" />
        </mxCell>
        <mxCell id="5AW3J-fh9Zgp_AAcRgvr-229" style="edgeStyle=none;shape=connector;rounded=0;orthogonalLoop=1;jettySize=auto;html=1;exitX=0.5;exitY=1;exitDx=0;exitDy=0;entryX=0.5;entryY=0;entryDx=0;entryDy=0;strokeColor=default;align=center;verticalAlign=middle;fontFamily=Helvetica;fontSize=11;fontColor=default;labelBackgroundColor=default;startFill=0;endArrow=none;" edge="1" parent="WIyWlLk6GJQsqaUBKTNV-1" source="5AW3J-fh9Zgp_AAcRgvr-208" target="5AW3J-fh9Zgp_AAcRgvr-228">
          <mxGeometry relative="1" as="geometry" />
        </mxCell>
        <mxCell id="5AW3J-fh9Zgp_AAcRgvr-274" style="edgeStyle=none;shape=connector;rounded=0;orthogonalLoop=1;jettySize=auto;html=1;exitX=0.5;exitY=1;exitDx=0;exitDy=0;entryX=0.5;entryY=0;entryDx=0;entryDy=0;strokeColor=default;align=center;verticalAlign=middle;fontFamily=Helvetica;fontSize=11;fontColor=default;labelBackgroundColor=default;startFill=0;endArrow=none;" edge="1" parent="WIyWlLk6GJQsqaUBKTNV-1" source="5AW3J-fh9Zgp_AAcRgvr-208" target="5AW3J-fh9Zgp_AAcRgvr-270">
          <mxGeometry relative="1" as="geometry" />
        </mxCell>
        <mxCell id="5AW3J-fh9Zgp_AAcRgvr-208" value="声肺康系统主控/操作界面" style="rounded=0;whiteSpace=wrap;html=1;fontSize=30;" vertex="1" parent="WIyWlLk6GJQsqaUBKTNV-1">
          <mxGeometry x="706.25" y="3650" width="587.5" height="60" as="geometry" />
        </mxCell>
        <mxCell id="5AW3J-fh9Zgp_AAcRgvr-278" style="edgeStyle=none;shape=connector;rounded=0;orthogonalLoop=1;jettySize=auto;html=1;exitX=0.5;exitY=1;exitDx=0;exitDy=0;entryX=0.5;entryY=0;entryDx=0;entryDy=0;strokeColor=default;align=center;verticalAlign=middle;fontFamily=Helvetica;fontSize=11;fontColor=default;labelBackgroundColor=default;startFill=0;endArrow=none;" edge="1" parent="WIyWlLk6GJQsqaUBKTNV-1" source="5AW3J-fh9Zgp_AAcRgvr-224" target="5AW3J-fh9Zgp_AAcRgvr-276">
          <mxGeometry relative="1" as="geometry" />
        </mxCell>
        <mxCell id="5AW3J-fh9Zgp_AAcRgvr-224" value="登录注册路由" style="html=1;dashed=0;whiteSpace=wrap;" vertex="1" parent="WIyWlLk6GJQsqaUBKTNV-1">
          <mxGeometry x="90" y="3780" width="190" height="90" as="geometry" />
        </mxCell>
        <mxCell id="5AW3J-fh9Zgp_AAcRgvr-238" style="edgeStyle=none;shape=connector;rounded=0;orthogonalLoop=1;jettySize=auto;html=1;exitX=0.5;exitY=1;exitDx=0;exitDy=0;entryX=0.5;entryY=0;entryDx=0;entryDy=0;strokeColor=default;align=center;verticalAlign=middle;fontFamily=Helvetica;fontSize=11;fontColor=default;labelBackgroundColor=default;startFill=0;endArrow=none;" edge="1" parent="WIyWlLk6GJQsqaUBKTNV-1" source="5AW3J-fh9Zgp_AAcRgvr-226" target="5AW3J-fh9Zgp_AAcRgvr-237">
          <mxGeometry relative="1" as="geometry" />
        </mxCell>
        <mxCell id="5AW3J-fh9Zgp_AAcRgvr-240" style="edgeStyle=none;shape=connector;rounded=0;orthogonalLoop=1;jettySize=auto;html=1;exitX=0.5;exitY=1;exitDx=0;exitDy=0;entryX=0.5;entryY=0;entryDx=0;entryDy=0;strokeColor=default;align=center;verticalAlign=middle;fontFamily=Helvetica;fontSize=11;fontColor=default;labelBackgroundColor=default;startFill=0;endArrow=none;" edge="1" parent="WIyWlLk6GJQsqaUBKTNV-1" source="5AW3J-fh9Zgp_AAcRgvr-226" target="5AW3J-fh9Zgp_AAcRgvr-239">
          <mxGeometry relative="1" as="geometry" />
        </mxCell>
        <mxCell id="5AW3J-fh9Zgp_AAcRgvr-242" style="edgeStyle=none;shape=connector;rounded=0;orthogonalLoop=1;jettySize=auto;html=1;exitX=0.5;exitY=1;exitDx=0;exitDy=0;entryX=0.5;entryY=0;entryDx=0;entryDy=0;strokeColor=default;align=center;verticalAlign=middle;fontFamily=Helvetica;fontSize=11;fontColor=default;labelBackgroundColor=default;startFill=0;endArrow=none;" edge="1" parent="WIyWlLk6GJQsqaUBKTNV-1" source="5AW3J-fh9Zgp_AAcRgvr-226" target="5AW3J-fh9Zgp_AAcRgvr-241">
          <mxGeometry relative="1" as="geometry" />
        </mxCell>
        <mxCell id="5AW3J-fh9Zgp_AAcRgvr-226" value="语音检测路由" style="html=1;dashed=0;whiteSpace=wrap;" vertex="1" parent="WIyWlLk6GJQsqaUBKTNV-1">
          <mxGeometry x="620" y="3775" width="190" height="90" as="geometry" />
        </mxCell>
        <mxCell id="5AW3J-fh9Zgp_AAcRgvr-257" style="edgeStyle=none;shape=connector;rounded=0;orthogonalLoop=1;jettySize=auto;html=1;exitX=0.5;exitY=1;exitDx=0;exitDy=0;entryX=0.5;entryY=0;entryDx=0;entryDy=0;strokeColor=default;align=center;verticalAlign=middle;fontFamily=Helvetica;fontSize=11;fontColor=default;labelBackgroundColor=default;startFill=0;endArrow=none;" edge="1" parent="WIyWlLk6GJQsqaUBKTNV-1" source="5AW3J-fh9Zgp_AAcRgvr-228" target="5AW3J-fh9Zgp_AAcRgvr-255">
          <mxGeometry relative="1" as="geometry" />
        </mxCell>
        <mxCell id="5AW3J-fh9Zgp_AAcRgvr-344" style="edgeStyle=none;shape=connector;rounded=0;orthogonalLoop=1;jettySize=auto;html=1;exitX=0.5;exitY=1;exitDx=0;exitDy=0;entryX=0.5;entryY=0;entryDx=0;entryDy=0;strokeColor=default;align=center;verticalAlign=middle;fontFamily=Helvetica;fontSize=11;fontColor=default;labelBackgroundColor=default;startFill=0;endArrow=none;" edge="1" parent="WIyWlLk6GJQsqaUBKTNV-1" source="5AW3J-fh9Zgp_AAcRgvr-228" target="5AW3J-fh9Zgp_AAcRgvr-259">
          <mxGeometry relative="1" as="geometry" />
        </mxCell>
        <mxCell id="5AW3J-fh9Zgp_AAcRgvr-345" style="edgeStyle=none;shape=connector;rounded=0;orthogonalLoop=1;jettySize=auto;html=1;exitX=0.5;exitY=1;exitDx=0;exitDy=0;entryX=0.5;entryY=0;entryDx=0;entryDy=0;strokeColor=default;align=center;verticalAlign=middle;fontFamily=Helvetica;fontSize=11;fontColor=default;labelBackgroundColor=default;startFill=0;endArrow=none;" edge="1" parent="WIyWlLk6GJQsqaUBKTNV-1" source="5AW3J-fh9Zgp_AAcRgvr-228" target="5AW3J-fh9Zgp_AAcRgvr-263">
          <mxGeometry relative="1" as="geometry" />
        </mxCell>
        <mxCell id="5AW3J-fh9Zgp_AAcRgvr-228" value="仪表盘路由" style="html=1;dashed=0;whiteSpace=wrap;" vertex="1" parent="WIyWlLk6GJQsqaUBKTNV-1">
          <mxGeometry x="1630" y="3775" width="190" height="90" as="geometry" />
        </mxCell>
        <mxCell id="5AW3J-fh9Zgp_AAcRgvr-237" value="特征提取" style="html=1;dashed=0;whiteSpace=wrap;" vertex="1" parent="WIyWlLk6GJQsqaUBKTNV-1">
          <mxGeometry x="395" y="3960" width="190" height="90" as="geometry" />
        </mxCell>
        <mxCell id="5AW3J-fh9Zgp_AAcRgvr-239" value="ai模型分析" style="html=1;dashed=0;whiteSpace=wrap;" vertex="1" parent="WIyWlLk6GJQsqaUBKTNV-1">
          <mxGeometry x="620" y="3960" width="190" height="90" as="geometry" />
        </mxCell>
        <mxCell id="5AW3J-fh9Zgp_AAcRgvr-241" value="数据发送事务" style="html=1;dashed=0;whiteSpace=wrap;" vertex="1" parent="WIyWlLk6GJQsqaUBKTNV-1">
          <mxGeometry x="840" y="3960" width="190" height="90" as="geometry" />
        </mxCell>
        <mxCell id="5AW3J-fh9Zgp_AAcRgvr-255" value="仪表盘发送" style="html=1;dashed=0;whiteSpace=wrap;" vertex="1" parent="WIyWlLk6GJQsqaUBKTNV-1">
          <mxGeometry x="1842.5" y="3960" width="190" height="90" as="geometry" />
        </mxCell>
        <mxCell id="5AW3J-fh9Zgp_AAcRgvr-259" value="声音kpi事务模块" style="html=1;dashed=0;whiteSpace=wrap;" vertex="1" parent="WIyWlLk6GJQsqaUBKTNV-1">
          <mxGeometry x="1420" y="3960" width="190" height="90" as="geometry" />
        </mxCell>
        <mxCell id="5AW3J-fh9Zgp_AAcRgvr-263" value="llm事务模块" style="html=1;dashed=0;whiteSpace=wrap;" vertex="1" parent="WIyWlLk6GJQsqaUBKTNV-1">
          <mxGeometry x="1630" y="3960" width="190" height="90" as="geometry" />
        </mxCell>
        <mxCell id="5AW3J-fh9Zgp_AAcRgvr-268" style="edgeStyle=none;shape=connector;rounded=0;orthogonalLoop=1;jettySize=auto;html=1;exitX=0.5;exitY=1;exitDx=0;exitDy=0;entryX=0.5;entryY=0;entryDx=0;entryDy=0;strokeColor=default;align=center;verticalAlign=middle;fontFamily=Helvetica;fontSize=11;fontColor=default;labelBackgroundColor=default;startFill=0;endArrow=none;" edge="1" parent="WIyWlLk6GJQsqaUBKTNV-1" source="5AW3J-fh9Zgp_AAcRgvr-270" target="5AW3J-fh9Zgp_AAcRgvr-272">
          <mxGeometry relative="1" as="geometry" />
        </mxCell>
        <mxCell id="5AW3J-fh9Zgp_AAcRgvr-270" value="大模型路由&lt;span style=&quot;color: rgba(0, 0, 0, 0); font-family: monospace; font-size: 0px; text-align: start; text-wrap-mode: nowrap;&quot;&gt;%3CmxGraphModel%3E%3Croot%3E%3CmxCell%20id%3D%220%22%2F%3E%3CmxCell%20id%3D%221%22%20parent%3D%220%22%2F%3E%3CmxCell%20id%3D%222%22%20value%3D%22%E5%8F%91%E7%BB%99%E6%8C%87%E6%A0%87%E6%95%B0%E6%8D%AE%E5%BA%93%22%20style%3D%22html%3D1%3Bdashed%3D0%3BwhiteSpace%3Dwrap%3B%22%20vertex%3D%221%22%20parent%3D%221%22%3E%3CmxGeometry%20x%3D%221110%22%20y%3D%223810%22%20width%3D%22190%22%20height%3D%2290%22%20as%3D%22geometry%22%2F%3E%3C%2FmxCell%3E%3C%2Froot%3E%3C%2FmxGraphModel%3E&lt;/span&gt;&lt;span style=&quot;color: rgba(0, 0, 0, 0); font-family: monospace; font-size: 0px; text-align: start; text-wrap-mode: nowrap;&quot;&gt;%3CmxGraphModel%3E%3Croot%3E%3CmxCell%20id%3D%220%22%2F%3E%3CmxCell%20id%3D%221%22%20parent%3D%220%22%2F%3E%3CmxCell%20id%3D%222%22%20value%3D%22%E5%8F%91%E7%BB%99%E6%8C%87%E6%A0%87%E6%95%B0%E6%8D%AE%E5%BA%93%22%20style%3D%22html%3D1%3Bdashed%3D0%3BwhiteSpace%3Dwrap%3B%22%20vertex%3D%221%22%20parent%3D%221%22%3E%3CmxGeometry%20x%3D%221110%22%20y%3D%223810%22%20width%3D%22190%22%20height%3D%2290%22%20as%3D%22geometry%22%2F%3E%3C%2FmxCell%3E%3C%2Froot%3E%3C%2FmxGraphModel%3E&lt;/span&gt;" style="html=1;dashed=0;whiteSpace=wrap;" vertex="1" parent="WIyWlLk6GJQsqaUBKTNV-1">
          <mxGeometry x="1140" y="3775" width="190" height="90" as="geometry" />
        </mxCell>
        <mxCell id="5AW3J-fh9Zgp_AAcRgvr-272" value="llm调用及处理模块" style="html=1;dashed=0;whiteSpace=wrap;" vertex="1" parent="WIyWlLk6GJQsqaUBKTNV-1">
          <mxGeometry x="1140" y="3960" width="190" height="90" as="geometry" />
        </mxCell>
        <mxCell id="5AW3J-fh9Zgp_AAcRgvr-276" value="登录注册事务" style="html=1;dashed=0;whiteSpace=wrap;" vertex="1" parent="WIyWlLk6GJQsqaUBKTNV-1">
          <mxGeometry x="90" y="3960" width="190" height="90" as="geometry" />
        </mxCell>
        <mxCell id="5AW3J-fh9Zgp_AAcRgvr-284" style="edgeStyle=none;shape=connector;rounded=0;orthogonalLoop=1;jettySize=auto;html=1;exitX=1;exitY=1;exitDx=0;exitDy=0;entryX=0;entryY=0.5;entryDx=0;entryDy=0;strokeColor=default;align=center;verticalAlign=middle;fontFamily=Helvetica;fontSize=11;fontColor=default;labelBackgroundColor=default;startFill=0;endArrow=classic;endFill=1;" edge="1" parent="WIyWlLk6GJQsqaUBKTNV-1" source="5AW3J-fh9Zgp_AAcRgvr-280" target="5AW3J-fh9Zgp_AAcRgvr-281">
          <mxGeometry relative="1" as="geometry" />
        </mxCell>
        <mxCell id="5AW3J-fh9Zgp_AAcRgvr-285" style="edgeStyle=none;shape=connector;rounded=0;orthogonalLoop=1;jettySize=auto;html=1;exitX=1;exitY=0;exitDx=0;exitDy=0;entryX=0;entryY=0.5;entryDx=0;entryDy=0;strokeColor=default;align=center;verticalAlign=middle;fontFamily=Helvetica;fontSize=11;fontColor=default;labelBackgroundColor=default;startFill=0;endArrow=classic;endFill=1;" edge="1" parent="WIyWlLk6GJQsqaUBKTNV-1" source="5AW3J-fh9Zgp_AAcRgvr-280" target="5AW3J-fh9Zgp_AAcRgvr-282">
          <mxGeometry relative="1" as="geometry" />
        </mxCell>
        <mxCell id="5AW3J-fh9Zgp_AAcRgvr-297" style="shape=connector;rounded=0;orthogonalLoop=1;jettySize=auto;html=1;exitX=0.5;exitY=1;exitDx=0;exitDy=0;entryX=0;entryY=1;entryDx=0;entryDy=0;strokeColor=default;align=center;verticalAlign=middle;fontFamily=Helvetica;fontSize=11;fontColor=default;labelBackgroundColor=default;endArrow=classic;" edge="1" parent="WIyWlLk6GJQsqaUBKTNV-1" source="5AW3J-fh9Zgp_AAcRgvr-280" target="5AW3J-fh9Zgp_AAcRgvr-283">
          <mxGeometry relative="1" as="geometry" />
        </mxCell>
        <mxCell id="5AW3J-fh9Zgp_AAcRgvr-280" value="os" style="shape=ellipse;html=1;dashed=0;whiteSpace=wrap;aspect=fixed;perimeter=ellipsePerimeter;fontFamily=Helvetica;fontSize=11;fontColor=default;labelBackgroundColor=default;" vertex="1" parent="WIyWlLk6GJQsqaUBKTNV-1">
          <mxGeometry x="-130" y="3260" width="90" height="90" as="geometry" />
        </mxCell>
        <mxCell id="5AW3J-fh9Zgp_AAcRgvr-296" style="shape=connector;rounded=0;orthogonalLoop=1;jettySize=auto;html=1;exitX=1;exitY=0.5;exitDx=0;exitDy=0;entryX=0;entryY=0.5;entryDx=0;entryDy=0;strokeColor=default;align=center;verticalAlign=middle;fontFamily=Helvetica;fontSize=11;fontColor=default;labelBackgroundColor=default;endArrow=classic;" edge="1" parent="WIyWlLk6GJQsqaUBKTNV-1" source="5AW3J-fh9Zgp_AAcRgvr-281" target="5AW3J-fh9Zgp_AAcRgvr-283">
          <mxGeometry relative="1" as="geometry" />
        </mxCell>
        <mxCell id="5AW3J-fh9Zgp_AAcRgvr-281" value="llm" style="shape=ellipse;html=1;dashed=0;whiteSpace=wrap;aspect=fixed;perimeter=ellipsePerimeter;fontFamily=Helvetica;fontSize=11;fontColor=default;labelBackgroundColor=default;" vertex="1" parent="WIyWlLk6GJQsqaUBKTNV-1">
          <mxGeometry x="157.5" y="3270" width="90" height="90" as="geometry" />
        </mxCell>
        <mxCell id="5AW3J-fh9Zgp_AAcRgvr-286" style="edgeStyle=none;shape=connector;rounded=0;orthogonalLoop=1;jettySize=auto;html=1;exitX=1;exitY=1;exitDx=0;exitDy=0;entryX=0.5;entryY=0;entryDx=0;entryDy=0;strokeColor=default;align=center;verticalAlign=middle;fontFamily=Helvetica;fontSize=11;fontColor=default;labelBackgroundColor=default;startFill=0;endArrow=classic;endFill=1;" edge="1" parent="WIyWlLk6GJQsqaUBKTNV-1" source="5AW3J-fh9Zgp_AAcRgvr-282" target="5AW3J-fh9Zgp_AAcRgvr-281">
          <mxGeometry relative="1" as="geometry" />
        </mxCell>
        <mxCell id="5AW3J-fh9Zgp_AAcRgvr-287" style="shape=connector;rounded=0;orthogonalLoop=1;jettySize=auto;html=1;exitX=1;exitY=0.5;exitDx=0;exitDy=0;entryX=0;entryY=0;entryDx=0;entryDy=0;strokeColor=default;align=center;verticalAlign=middle;fontFamily=Helvetica;fontSize=11;fontColor=default;labelBackgroundColor=default;startFill=0;endArrow=classic;endFill=1;" edge="1" parent="WIyWlLk6GJQsqaUBKTNV-1" source="5AW3J-fh9Zgp_AAcRgvr-282" target="5AW3J-fh9Zgp_AAcRgvr-283">
          <mxGeometry relative="1" as="geometry" />
        </mxCell>
        <mxCell id="5AW3J-fh9Zgp_AAcRgvr-282" value="voice" style="shape=ellipse;html=1;dashed=0;whiteSpace=wrap;aspect=fixed;perimeter=ellipsePerimeter;fontFamily=Helvetica;fontSize=11;fontColor=default;labelBackgroundColor=default;" vertex="1" parent="WIyWlLk6GJQsqaUBKTNV-1">
          <mxGeometry x="47.5" y="3120" width="90" height="90" as="geometry" />
        </mxCell>
        <mxCell id="5AW3J-fh9Zgp_AAcRgvr-283" value="dash" style="shape=ellipse;html=1;dashed=0;whiteSpace=wrap;aspect=fixed;perimeter=ellipsePerimeter;fontFamily=Helvetica;fontSize=11;fontColor=default;labelBackgroundColor=default;" vertex="1" parent="WIyWlLk6GJQsqaUBKTNV-1">
          <mxGeometry x="350" y="3320" width="90" height="90" as="geometry" />
        </mxCell>
        <mxCell id="5AW3J-fh9Zgp_AAcRgvr-336" style="edgeStyle=orthogonalEdgeStyle;shape=connector;rounded=0;orthogonalLoop=1;jettySize=auto;html=1;exitX=0;exitY=0.5;exitDx=0;exitDy=0;entryX=1;entryY=0.25;entryDx=0;entryDy=0;strokeColor=default;align=center;verticalAlign=middle;fontFamily=Helvetica;fontSize=11;fontColor=default;labelBackgroundColor=default;endArrow=classic;" edge="1" parent="WIyWlLk6GJQsqaUBKTNV-1" source="5AW3J-fh9Zgp_AAcRgvr-300" target="5AW3J-fh9Zgp_AAcRgvr-301">
          <mxGeometry relative="1" as="geometry">
            <Array as="points">
              <mxPoint x="1248.25" y="3240" />
            </Array>
          </mxGeometry>
        </mxCell>
        <mxCell id="5AW3J-fh9Zgp_AAcRgvr-300" value="声音kpi事务&lt;br&gt;&lt;div&gt;3.1&lt;/div&gt;" style="html=1;dashed=0;whiteSpace=wrap;rounded=1;" vertex="1" parent="WIyWlLk6GJQsqaUBKTNV-1">
          <mxGeometry x="1248.75" y="3189.86" width="85" height="60" as="geometry" />
        </mxCell>
        <mxCell id="5AW3J-fh9Zgp_AAcRgvr-340" value="仪表盘" style="edgeStyle=orthogonalEdgeStyle;shape=connector;rounded=0;orthogonalLoop=1;jettySize=auto;html=1;exitX=0;exitY=0.5;exitDx=0;exitDy=0;entryX=0.75;entryY=1;entryDx=0;entryDy=0;strokeColor=default;align=center;verticalAlign=middle;fontFamily=Helvetica;fontSize=11;fontColor=default;labelBackgroundColor=default;endArrow=classic;" edge="1" parent="WIyWlLk6GJQsqaUBKTNV-1" source="5AW3J-fh9Zgp_AAcRgvr-301" target="5AW3J-fh9Zgp_AAcRgvr-196">
          <mxGeometry relative="1" as="geometry">
            <Array as="points">
              <mxPoint x="1121.25" y="3255" />
            </Array>
          </mxGeometry>
        </mxCell>
        <mxCell id="5AW3J-fh9Zgp_AAcRgvr-301" value="dash发送&lt;br&gt;&lt;div&gt;3.3&lt;/div&gt;" style="html=1;dashed=0;whiteSpace=wrap;rounded=1;" vertex="1" parent="WIyWlLk6GJQsqaUBKTNV-1">
          <mxGeometry x="1136.25" y="3224.86" width="80" height="60" as="geometry" />
        </mxCell>
        <mxCell id="5AW3J-fh9Zgp_AAcRgvr-337" style="edgeStyle=orthogonalEdgeStyle;shape=connector;rounded=0;orthogonalLoop=1;jettySize=auto;html=1;exitX=0;exitY=0.5;exitDx=0;exitDy=0;entryX=1;entryY=0.75;entryDx=0;entryDy=0;strokeColor=default;align=center;verticalAlign=middle;fontFamily=Helvetica;fontSize=11;fontColor=default;labelBackgroundColor=default;endArrow=classic;" edge="1" parent="WIyWlLk6GJQsqaUBKTNV-1" source="5AW3J-fh9Zgp_AAcRgvr-303" target="5AW3J-fh9Zgp_AAcRgvr-301">
          <mxGeometry relative="1" as="geometry">
            <Array as="points">
              <mxPoint x="1248.25" y="3270" />
            </Array>
          </mxGeometry>
        </mxCell>
        <mxCell id="5AW3J-fh9Zgp_AAcRgvr-303" value="llm事务&lt;br&gt;&lt;div&gt;3.2&lt;/div&gt;" style="html=1;dashed=0;whiteSpace=wrap;rounded=1;" vertex="1" parent="WIyWlLk6GJQsqaUBKTNV-1">
          <mxGeometry x="1248.75" y="3259.86" width="85" height="60" as="geometry" />
        </mxCell>
        <mxCell id="5AW3J-fh9Zgp_AAcRgvr-334" value="事务分发" style="edgeStyle=orthogonalEdgeStyle;shape=connector;rounded=0;orthogonalLoop=1;jettySize=auto;html=1;exitX=0;exitY=0.25;exitDx=0;exitDy=0;entryX=1;entryY=0.5;entryDx=0;entryDy=0;strokeColor=default;align=center;verticalAlign=middle;fontFamily=Helvetica;fontSize=11;fontColor=default;labelBackgroundColor=default;endArrow=classic;" edge="1" parent="WIyWlLk6GJQsqaUBKTNV-1" source="5AW3J-fh9Zgp_AAcRgvr-304" target="5AW3J-fh9Zgp_AAcRgvr-300">
          <mxGeometry relative="1" as="geometry" />
        </mxCell>
        <mxCell id="5AW3J-fh9Zgp_AAcRgvr-335" value="分发" style="edgeStyle=orthogonalEdgeStyle;shape=connector;rounded=0;orthogonalLoop=1;jettySize=auto;html=1;exitX=0;exitY=0.75;exitDx=0;exitDy=0;entryX=1;entryY=0.5;entryDx=0;entryDy=0;strokeColor=default;align=center;verticalAlign=middle;fontFamily=Helvetica;fontSize=11;fontColor=default;labelBackgroundColor=default;endArrow=classic;" edge="1" parent="WIyWlLk6GJQsqaUBKTNV-1" source="5AW3J-fh9Zgp_AAcRgvr-304" target="5AW3J-fh9Zgp_AAcRgvr-303">
          <mxGeometry relative="1" as="geometry" />
        </mxCell>
        <mxCell id="5AW3J-fh9Zgp_AAcRgvr-304" value="&lt;div&gt;&lt;span style=&quot;background-color: transparent; color: light-dark(rgb(0, 0, 0), rgb(255, 255, 255));&quot;&gt;仪表盘路由&lt;/span&gt;&lt;/div&gt;&lt;div&gt;&lt;span style=&quot;background-color: transparent; color: light-dark(rgb(0, 0, 0), rgb(255, 255, 255));&quot;&gt;3.4&lt;/span&gt;&lt;/div&gt;" style="html=1;dashed=0;whiteSpace=wrap;rounded=1;" vertex="1" parent="WIyWlLk6GJQsqaUBKTNV-1">
          <mxGeometry x="1381.2499999999998" y="3224.86" width="85" height="60" as="geometry" />
        </mxCell>
        <mxCell id="5AW3J-fh9Zgp_AAcRgvr-311" value="历史检测信息" style="edgeStyle=orthogonalEdgeStyle;rounded=0;orthogonalLoop=1;jettySize=auto;html=1;exitX=1;exitY=0.5;exitDx=0;exitDy=0;entryX=1;entryY=0.75;entryDx=0;entryDy=0;" edge="1" parent="WIyWlLk6GJQsqaUBKTNV-1" source="5AW3J-fh9Zgp_AAcRgvr-312" target="5AW3J-fh9Zgp_AAcRgvr-320">
          <mxGeometry x="-0.314" relative="1" as="geometry">
            <Array as="points">
              <mxPoint x="2110" y="2640" />
              <mxPoint x="2110" y="2535" />
            </Array>
            <mxPoint x="2367.5" y="2490" as="targetPoint" />
            <mxPoint as="offset" />
          </mxGeometry>
        </mxCell>
        <mxCell id="5AW3J-fh9Zgp_AAcRgvr-312" value="D3&amp;nbsp; &amp;nbsp;诊断记录" style="html=1;dashed=0;whiteSpace=wrap;shape=mxgraph.dfd.dataStoreID;align=left;spacingLeft=3;points=[[0,0],[0.5,0],[1,0],[0,0.5],[1,0.5],[0,1],[0.5,1],[1,1]];" vertex="1" parent="WIyWlLk6GJQsqaUBKTNV-1">
          <mxGeometry x="1950" y="2620" width="140" height="40" as="geometry" />
        </mxCell>
        <mxCell id="5AW3J-fh9Zgp_AAcRgvr-313" value="本次诊断结果" style="edgeStyle=orthogonalEdgeStyle;rounded=0;orthogonalLoop=1;jettySize=auto;html=1;entryX=0.5;entryY=0;entryDx=0;entryDy=0;exitX=0.5;exitY=1;exitDx=0;exitDy=0;" edge="1" parent="WIyWlLk6GJQsqaUBKTNV-1" source="5AW3J-fh9Zgp_AAcRgvr-320" target="5AW3J-fh9Zgp_AAcRgvr-312">
          <mxGeometry relative="1" as="geometry">
            <mxPoint x="2107.5" y="2619.92" as="targetPoint" />
            <mxPoint x="2247.5" y="2580" as="sourcePoint" />
          </mxGeometry>
        </mxCell>
        <mxCell id="5AW3J-fh9Zgp_AAcRgvr-314" style="edgeStyle=orthogonalEdgeStyle;rounded=0;orthogonalLoop=1;jettySize=auto;html=1;exitX=0;exitY=0.25;exitDx=0;exitDy=0;entryX=0.5;entryY=0;entryDx=0;entryDy=0;" edge="1" parent="WIyWlLk6GJQsqaUBKTNV-1" source="5AW3J-fh9Zgp_AAcRgvr-316" target="5AW3J-fh9Zgp_AAcRgvr-320">
          <mxGeometry relative="1" as="geometry">
            <Array as="points">
              <mxPoint x="2110" y="2485" />
              <mxPoint x="2110" y="2460" />
              <mxPoint x="2020" y="2460" />
            </Array>
          </mxGeometry>
        </mxCell>
        <mxCell id="5AW3J-fh9Zgp_AAcRgvr-315" value="本次诊断结果" style="edgeLabel;html=1;align=center;verticalAlign=middle;resizable=0;points=[];" vertex="1" connectable="0" parent="5AW3J-fh9Zgp_AAcRgvr-314">
          <mxGeometry x="-0.2354" y="-1" relative="1" as="geometry">
            <mxPoint x="20" as="offset" />
          </mxGeometry>
        </mxCell>
        <mxCell id="5AW3J-fh9Zgp_AAcRgvr-316" value="llm调用&lt;br&gt;&lt;div&gt;5.1&lt;/div&gt;" style="html=1;dashed=0;whiteSpace=wrap;rounded=1;" vertex="1" parent="WIyWlLk6GJQsqaUBKTNV-1">
          <mxGeometry x="2137.5" y="2470" width="80" height="60" as="geometry" />
        </mxCell>
        <mxCell id="5AW3J-fh9Zgp_AAcRgvr-317" style="edgeStyle=orthogonalEdgeStyle;rounded=0;orthogonalLoop=1;jettySize=auto;html=1;exitX=0.5;exitY=0;exitDx=0;exitDy=0;entryX=0.5;entryY=1;entryDx=0;entryDy=0;" edge="1" parent="WIyWlLk6GJQsqaUBKTNV-1" source="5AW3J-fh9Zgp_AAcRgvr-318" target="5AW3J-fh9Zgp_AAcRgvr-316">
          <mxGeometry relative="1" as="geometry" />
        </mxCell>
        <mxCell id="5AW3J-fh9Zgp_AAcRgvr-318" value="用户对话处理&lt;br&gt;&lt;div&gt;5.2&lt;/div&gt;" style="html=1;dashed=0;whiteSpace=wrap;rounded=1;" vertex="1" parent="WIyWlLk6GJQsqaUBKTNV-1">
          <mxGeometry x="2137.5" y="2540" width="80" height="60" as="geometry" />
        </mxCell>
        <mxCell id="5AW3J-fh9Zgp_AAcRgvr-319" style="edgeStyle=orthogonalEdgeStyle;rounded=0;orthogonalLoop=1;jettySize=auto;html=1;exitX=1;exitY=0.25;exitDx=0;exitDy=0;entryX=0;entryY=0.75;entryDx=0;entryDy=0;" edge="1" parent="WIyWlLk6GJQsqaUBKTNV-1" source="5AW3J-fh9Zgp_AAcRgvr-320" target="5AW3J-fh9Zgp_AAcRgvr-316">
          <mxGeometry relative="1" as="geometry">
            <Array as="points">
              <mxPoint x="2090" y="2505" />
              <mxPoint x="2090" y="2515" />
            </Array>
          </mxGeometry>
        </mxCell>
        <mxCell id="5AW3J-fh9Zgp_AAcRgvr-320" value="llm数据库处理&lt;br&gt;&lt;div&gt;5.3&lt;/div&gt;" style="html=1;dashed=0;whiteSpace=wrap;rounded=1;" vertex="1" parent="WIyWlLk6GJQsqaUBKTNV-1">
          <mxGeometry x="1980" y="2490" width="80" height="60" as="geometry" />
        </mxCell>
        <mxCell id="5AW3J-fh9Zgp_AAcRgvr-323" style="edgeStyle=orthogonalEdgeStyle;shape=connector;rounded=0;orthogonalLoop=1;jettySize=auto;html=1;exitX=0.5;exitY=1;exitDx=0;exitDy=0;strokeColor=default;align=center;verticalAlign=middle;fontFamily=Helvetica;fontSize=11;fontColor=default;labelBackgroundColor=default;endArrow=classic;" edge="1" parent="WIyWlLk6GJQsqaUBKTNV-1" source="5AW3J-fh9Zgp_AAcRgvr-321" target="5AW3J-fh9Zgp_AAcRgvr-322">
          <mxGeometry relative="1" as="geometry" />
        </mxCell>
        <mxCell id="PU9GwJ7Ga9DkK4zif8IB-55" value="对话" style="edgeStyle=orthogonalEdgeStyle;shape=connector;rounded=0;orthogonalLoop=1;jettySize=auto;html=1;exitX=1;exitY=0.25;exitDx=0;exitDy=0;strokeColor=default;align=center;verticalAlign=middle;fontFamily=Helvetica;fontSize=11;fontColor=default;labelBackgroundColor=default;startFill=0;endArrow=classic;endFill=1;entryX=0;entryY=1;entryDx=0;entryDy=0;" edge="1" parent="WIyWlLk6GJQsqaUBKTNV-1" source="5AW3J-fh9Zgp_AAcRgvr-321" target="5AW3J-fh9Zgp_AAcRgvr-196">
          <mxGeometry relative="1" as="geometry">
            <mxPoint x="1816.25" y="3110" as="targetPoint" />
            <Array as="points">
              <mxPoint x="1886.25" y="3155" />
              <mxPoint x="1886.25" y="3560" />
              <mxPoint x="1061.25" y="3560" />
            </Array>
          </mxGeometry>
        </mxCell>
        <mxCell id="5AW3J-fh9Zgp_AAcRgvr-321" value="llm路由&lt;br&gt;&lt;div&gt;5.1&lt;/div&gt;" style="html=1;dashed=0;whiteSpace=wrap;rounded=1;" vertex="1" parent="WIyWlLk6GJQsqaUBKTNV-1">
          <mxGeometry x="1636.25" y="3139.86" width="80" height="60" as="geometry" />
        </mxCell>
        <mxCell id="5AW3J-fh9Zgp_AAcRgvr-327" style="edgeStyle=orthogonalEdgeStyle;shape=connector;rounded=0;orthogonalLoop=1;jettySize=auto;html=1;exitX=0.5;exitY=1;exitDx=0;exitDy=0;entryX=0.5;entryY=0;entryDx=0;entryDy=0;strokeColor=default;align=center;verticalAlign=middle;fontFamily=Helvetica;fontSize=11;fontColor=default;labelBackgroundColor=default;endArrow=classic;" edge="1" parent="WIyWlLk6GJQsqaUBKTNV-1" source="5AW3J-fh9Zgp_AAcRgvr-322" target="5AW3J-fh9Zgp_AAcRgvr-324">
          <mxGeometry relative="1" as="geometry">
            <Array as="points">
              <mxPoint x="1676.25" y="3340" />
              <mxPoint x="1676.25" y="3340" />
            </Array>
          </mxGeometry>
        </mxCell>
        <mxCell id="5AW3J-fh9Zgp_AAcRgvr-329" value="存储" style="edgeLabel;html=1;align=center;verticalAlign=middle;resizable=0;points=[];fontFamily=Helvetica;fontSize=11;fontColor=default;labelBackgroundColor=default;" vertex="1" connectable="0" parent="5AW3J-fh9Zgp_AAcRgvr-327">
          <mxGeometry x="0.0491" y="1" relative="1" as="geometry">
            <mxPoint x="-1" as="offset" />
          </mxGeometry>
        </mxCell>
        <mxCell id="5AW3J-fh9Zgp_AAcRgvr-331" value="llm建议" style="edgeStyle=orthogonalEdgeStyle;shape=connector;rounded=0;orthogonalLoop=1;jettySize=auto;html=1;exitX=0;exitY=0.5;exitDx=0;exitDy=0;entryX=1;entryY=0.5;entryDx=0;entryDy=0;strokeColor=default;align=center;verticalAlign=middle;fontFamily=Helvetica;fontSize=11;fontColor=default;labelBackgroundColor=default;endArrow=classic;" edge="1" parent="WIyWlLk6GJQsqaUBKTNV-1" source="5AW3J-fh9Zgp_AAcRgvr-322" target="5AW3J-fh9Zgp_AAcRgvr-304">
          <mxGeometry relative="1" as="geometry" />
        </mxCell>
        <mxCell id="5AW3J-fh9Zgp_AAcRgvr-322" value="llm调用及发送事务&lt;br&gt;&lt;div&gt;5.2&lt;/div&gt;" style="html=1;dashed=0;whiteSpace=wrap;rounded=1;" vertex="1" parent="WIyWlLk6GJQsqaUBKTNV-1">
          <mxGeometry x="1636.25" y="3224.86" width="80" height="60" as="geometry" />
        </mxCell>
        <mxCell id="5AW3J-fh9Zgp_AAcRgvr-325" style="edgeStyle=orthogonalEdgeStyle;shape=connector;rounded=0;orthogonalLoop=1;jettySize=auto;html=1;exitX=1;exitY=0.5;exitDx=0;exitDy=0;strokeColor=default;align=center;verticalAlign=middle;fontFamily=Helvetica;fontSize=11;fontColor=default;labelBackgroundColor=default;endArrow=classic;entryX=1;entryY=0.5;entryDx=0;entryDy=0;" edge="1" parent="WIyWlLk6GJQsqaUBKTNV-1" source="5AW3J-fh9Zgp_AAcRgvr-324" target="5AW3J-fh9Zgp_AAcRgvr-322">
          <mxGeometry relative="1" as="geometry">
            <mxPoint x="1796.25" y="3420" as="targetPoint" />
          </mxGeometry>
        </mxCell>
        <mxCell id="5AW3J-fh9Zgp_AAcRgvr-330" value="历史诊断记录" style="edgeLabel;html=1;align=center;verticalAlign=middle;resizable=0;points=[];fontFamily=Helvetica;fontSize=11;fontColor=default;labelBackgroundColor=default;" vertex="1" connectable="0" parent="5AW3J-fh9Zgp_AAcRgvr-325">
          <mxGeometry x="0.1426" y="-4" relative="1" as="geometry">
            <mxPoint x="-1" as="offset" />
          </mxGeometry>
        </mxCell>
        <mxCell id="5AW3J-fh9Zgp_AAcRgvr-341" value="历史诊断" style="edgeStyle=orthogonalEdgeStyle;shape=connector;rounded=0;orthogonalLoop=1;jettySize=auto;html=1;exitX=0;exitY=0.5;exitDx=0;exitDy=0;entryX=0.5;entryY=1;entryDx=0;entryDy=0;strokeColor=default;align=center;verticalAlign=middle;fontFamily=Helvetica;fontSize=11;fontColor=default;labelBackgroundColor=default;endArrow=classic;" edge="1" parent="WIyWlLk6GJQsqaUBKTNV-1" source="5AW3J-fh9Zgp_AAcRgvr-324" target="5AW3J-fh9Zgp_AAcRgvr-303">
          <mxGeometry x="-0.2179" relative="1" as="geometry">
            <mxPoint as="offset" />
          </mxGeometry>
        </mxCell>
        <mxCell id="5AW3J-fh9Zgp_AAcRgvr-324" value="D3&amp;nbsp; &amp;nbsp;诊断记录" style="html=1;dashed=0;whiteSpace=wrap;shape=mxgraph.dfd.dataStoreID;align=left;spacingLeft=3;points=[[0,0],[0.5,0],[1,0],[0,0.5],[1,0.5],[0,1],[0.5,1],[1,1]];" vertex="1" parent="WIyWlLk6GJQsqaUBKTNV-1">
          <mxGeometry x="1606.25" y="3370" width="140" height="40" as="geometry" />
        </mxCell>
        <mxCell id="PU9GwJ7Ga9DkK4zif8IB-15" style="edgeStyle=none;shape=connector;rounded=0;orthogonalLoop=1;jettySize=auto;html=1;exitX=1;exitY=0.5;exitDx=0;exitDy=0;entryX=0;entryY=0.5;entryDx=0;entryDy=0;strokeColor=default;align=center;verticalAlign=middle;fontFamily=Helvetica;fontSize=11;fontColor=default;labelBackgroundColor=default;startFill=0;endArrow=classic;endFill=1;" edge="1" parent="WIyWlLk6GJQsqaUBKTNV-1" source="PU9GwJ7Ga9DkK4zif8IB-12" target="PU9GwJ7Ga9DkK4zif8IB-13">
          <mxGeometry relative="1" as="geometry" />
        </mxCell>
        <mxCell id="PU9GwJ7Ga9DkK4zif8IB-40" style="edgeStyle=none;shape=connector;rounded=0;orthogonalLoop=1;jettySize=auto;html=1;strokeColor=default;align=center;verticalAlign=middle;fontFamily=Helvetica;fontSize=11;fontColor=default;labelBackgroundColor=default;startFill=0;endArrow=classic;endFill=1;entryX=0;entryY=0.5;entryDx=0;entryDy=0;" edge="1" parent="WIyWlLk6GJQsqaUBKTNV-1" target="PU9GwJ7Ga9DkK4zif8IB-12">
          <mxGeometry relative="1" as="geometry">
            <mxPoint x="2509.272727272727" y="3019.86" as="targetPoint" />
            <mxPoint x="2325" y="3129.86" as="sourcePoint" />
          </mxGeometry>
        </mxCell>
        <mxCell id="PU9GwJ7Ga9DkK4zif8IB-12" value="操作界面&lt;div&gt;（上传语音）&lt;/div&gt;" style="shape=ellipse;html=1;dashed=0;whiteSpace=wrap;aspect=fixed;perimeter=ellipsePerimeter;fontFamily=Helvetica;fontSize=11;fontColor=default;labelBackgroundColor=default;" vertex="1" parent="WIyWlLk6GJQsqaUBKTNV-1">
          <mxGeometry x="2460" y="3079.86" width="100" height="100" as="geometry" />
        </mxCell>
        <mxCell id="PU9GwJ7Ga9DkK4zif8IB-16" style="edgeStyle=none;shape=connector;rounded=0;orthogonalLoop=1;jettySize=auto;html=1;exitX=1;exitY=0.5;exitDx=0;exitDy=0;entryX=0;entryY=0.5;entryDx=0;entryDy=0;strokeColor=default;align=center;verticalAlign=middle;fontFamily=Helvetica;fontSize=11;fontColor=default;labelBackgroundColor=default;startFill=0;endArrow=classic;endFill=1;" edge="1" parent="WIyWlLk6GJQsqaUBKTNV-1" source="PU9GwJ7Ga9DkK4zif8IB-13" target="PU9GwJ7Ga9DkK4zif8IB-14">
          <mxGeometry relative="1" as="geometry" />
        </mxCell>
        <mxCell id="PU9GwJ7Ga9DkK4zif8IB-13" value="语音路由" style="shape=ellipse;html=1;dashed=0;whiteSpace=wrap;aspect=fixed;perimeter=ellipsePerimeter;fontFamily=Helvetica;fontSize=11;fontColor=default;labelBackgroundColor=default;" vertex="1" parent="WIyWlLk6GJQsqaUBKTNV-1">
          <mxGeometry x="2650" y="3079.86" width="100" height="100" as="geometry" />
        </mxCell>
        <mxCell id="PU9GwJ7Ga9DkK4zif8IB-18" style="edgeStyle=none;shape=connector;rounded=0;orthogonalLoop=1;jettySize=auto;html=1;exitX=1;exitY=0.5;exitDx=0;exitDy=0;entryX=0;entryY=0.5;entryDx=0;entryDy=0;strokeColor=default;align=center;verticalAlign=middle;fontFamily=Helvetica;fontSize=11;fontColor=default;labelBackgroundColor=default;startFill=0;endArrow=classic;endFill=1;" edge="1" parent="WIyWlLk6GJQsqaUBKTNV-1" source="PU9GwJ7Ga9DkK4zif8IB-14" target="PU9GwJ7Ga9DkK4zif8IB-17">
          <mxGeometry relative="1" as="geometry" />
        </mxCell>
        <mxCell id="PU9GwJ7Ga9DkK4zif8IB-14" value="特征提取" style="shape=ellipse;html=1;dashed=0;whiteSpace=wrap;aspect=fixed;perimeter=ellipsePerimeter;fontFamily=Helvetica;fontSize=11;fontColor=default;labelBackgroundColor=default;" vertex="1" parent="WIyWlLk6GJQsqaUBKTNV-1">
          <mxGeometry x="2830" y="3079.86" width="100" height="100" as="geometry" />
        </mxCell>
        <mxCell id="PU9GwJ7Ga9DkK4zif8IB-20" value="2" style="edgeStyle=orthogonalEdgeStyle;shape=connector;rounded=0;orthogonalLoop=1;jettySize=auto;html=1;exitX=1;exitY=0.5;exitDx=0;exitDy=0;strokeColor=default;align=center;verticalAlign=middle;fontFamily=Helvetica;fontSize=11;fontColor=default;labelBackgroundColor=default;startFill=0;endArrow=classic;endFill=1;entryX=0.5;entryY=0;entryDx=0;entryDy=0;curved=1;" edge="1" parent="WIyWlLk6GJQsqaUBKTNV-1" source="PU9GwJ7Ga9DkK4zif8IB-17" target="PU9GwJ7Ga9DkK4zif8IB-19">
          <mxGeometry x="-0.4118" y="-60" relative="1" as="geometry">
            <mxPoint x="2995" y="3271.14" as="targetPoint" />
            <mxPoint as="offset" />
          </mxGeometry>
        </mxCell>
        <mxCell id="PU9GwJ7Ga9DkK4zif8IB-43" value="1" style="edgeStyle=orthogonalEdgeStyle;shape=connector;rounded=0;orthogonalLoop=1;jettySize=auto;html=1;exitX=0.5;exitY=1;exitDx=0;exitDy=0;entryX=0.5;entryY=0;entryDx=0;entryDy=0;strokeColor=default;align=center;verticalAlign=middle;fontFamily=Helvetica;fontSize=11;fontColor=default;labelBackgroundColor=default;startFill=0;endArrow=classic;endFill=1;curved=1;" edge="1" parent="WIyWlLk6GJQsqaUBKTNV-1" source="PU9GwJ7Ga9DkK4zif8IB-17" target="PU9GwJ7Ga9DkK4zif8IB-29">
          <mxGeometry x="0.0003" y="-25" relative="1" as="geometry">
            <mxPoint as="offset" />
          </mxGeometry>
        </mxCell>
        <mxCell id="PU9GwJ7Ga9DkK4zif8IB-17" value="语音模型" style="shape=ellipse;html=1;dashed=0;whiteSpace=wrap;aspect=fixed;perimeter=ellipsePerimeter;fontFamily=Helvetica;fontSize=11;fontColor=default;labelBackgroundColor=default;" vertex="1" parent="WIyWlLk6GJQsqaUBKTNV-1">
          <mxGeometry x="3010" y="3079.86" width="100" height="100" as="geometry" />
        </mxCell>
        <mxCell id="PU9GwJ7Ga9DkK4zif8IB-51" style="edgeStyle=orthogonalEdgeStyle;shape=connector;rounded=0;orthogonalLoop=1;jettySize=auto;html=1;exitX=0;exitY=0.5;exitDx=0;exitDy=0;entryX=1;entryY=0;entryDx=0;entryDy=0;strokeColor=default;align=center;verticalAlign=middle;fontFamily=Helvetica;fontSize=11;fontColor=default;labelBackgroundColor=default;startFill=0;endArrow=classic;endFill=1;curved=1;" edge="1" parent="WIyWlLk6GJQsqaUBKTNV-1" source="PU9GwJ7Ga9DkK4zif8IB-19" target="PU9GwJ7Ga9DkK4zif8IB-23">
          <mxGeometry relative="1" as="geometry" />
        </mxCell>
        <mxCell id="PU9GwJ7Ga9DkK4zif8IB-52" value="3" style="edgeStyle=orthogonalEdgeStyle;shape=connector;rounded=0;orthogonalLoop=1;jettySize=auto;html=1;exitX=0;exitY=1;exitDx=0;exitDy=0;entryX=1;entryY=0.5;entryDx=0;entryDy=0;strokeColor=#2D7600;align=center;verticalAlign=middle;fontFamily=Helvetica;fontSize=11;fontColor=default;labelBackgroundColor=default;startFill=0;endArrow=classic;endFill=1;curved=1;fillColor=#60a917;" edge="1" parent="WIyWlLk6GJQsqaUBKTNV-1" source="PU9GwJ7Ga9DkK4zif8IB-19" target="PU9GwJ7Ga9DkK4zif8IB-23">
          <mxGeometry relative="1" as="geometry" />
        </mxCell>
        <mxCell id="PU9GwJ7Ga9DkK4zif8IB-61" value="2" style="edgeStyle=orthogonalEdgeStyle;shape=connector;rounded=0;orthogonalLoop=1;jettySize=auto;html=1;exitX=0.5;exitY=1;exitDx=0;exitDy=0;strokeColor=#2D7600;align=center;verticalAlign=middle;fontFamily=Helvetica;fontSize=11;fontColor=default;labelBackgroundColor=default;startFill=0;endArrow=classic;endFill=1;entryX=1;entryY=1;entryDx=0;entryDy=0;curved=1;fillColor=#60a917;" edge="1" parent="WIyWlLk6GJQsqaUBKTNV-1" source="PU9GwJ7Ga9DkK4zif8IB-19" target="PU9GwJ7Ga9DkK4zif8IB-38">
          <mxGeometry relative="1" as="geometry">
            <Array as="points">
              <mxPoint x="3280" y="3670" />
              <mxPoint x="2545" y="3670" />
            </Array>
          </mxGeometry>
        </mxCell>
        <mxCell id="PU9GwJ7Ga9DkK4zif8IB-19" value="llm路由" style="shape=ellipse;html=1;dashed=0;whiteSpace=wrap;aspect=fixed;perimeter=ellipsePerimeter;fontFamily=Helvetica;fontSize=11;fontColor=default;labelBackgroundColor=default;" vertex="1" parent="WIyWlLk6GJQsqaUBKTNV-1">
          <mxGeometry x="3230" y="3300" width="100" height="100" as="geometry" />
        </mxCell>
        <mxCell id="PU9GwJ7Ga9DkK4zif8IB-22" style="edgeStyle=none;shape=connector;rounded=0;orthogonalLoop=1;jettySize=auto;html=1;exitX=0.5;exitY=1;exitDx=0;exitDy=0;strokeColor=default;align=center;verticalAlign=middle;fontFamily=Helvetica;fontSize=11;fontColor=default;labelBackgroundColor=default;startFill=0;endArrow=classic;endFill=1;entryX=0.5;entryY=0;entryDx=0;entryDy=0;" edge="1" parent="WIyWlLk6GJQsqaUBKTNV-1" source="PU9GwJ7Ga9DkK4zif8IB-26" target="PU9GwJ7Ga9DkK4zif8IB-23">
          <mxGeometry relative="1" as="geometry">
            <mxPoint x="3105.355339059327" y="3310.355339059327" as="sourcePoint" />
            <mxPoint x="3150" y="3395" as="targetPoint" />
          </mxGeometry>
        </mxCell>
        <mxCell id="PU9GwJ7Ga9DkK4zif8IB-45" style="edgeStyle=none;shape=connector;rounded=0;orthogonalLoop=1;jettySize=auto;html=1;exitX=0;exitY=0.5;exitDx=0;exitDy=0;entryX=1;entryY=0.5;entryDx=0;entryDy=0;strokeColor=default;align=center;verticalAlign=middle;fontFamily=Helvetica;fontSize=11;fontColor=default;labelBackgroundColor=default;startFill=0;endArrow=classic;endFill=1;" edge="1" parent="WIyWlLk6GJQsqaUBKTNV-1" source="PU9GwJ7Ga9DkK4zif8IB-23" target="PU9GwJ7Ga9DkK4zif8IB-29">
          <mxGeometry relative="1" as="geometry" />
        </mxCell>
        <mxCell id="PU9GwJ7Ga9DkK4zif8IB-68" value="4" style="edgeStyle=orthogonalEdgeStyle;shape=connector;rounded=0;orthogonalLoop=1;jettySize=auto;html=1;exitX=0;exitY=0;exitDx=0;exitDy=0;entryX=0.25;entryY=1;entryDx=0;entryDy=0;strokeColor=#2D7600;align=center;verticalAlign=middle;fontFamily=Helvetica;fontSize=11;fontColor=default;labelBackgroundColor=default;startFill=0;endArrow=classic;endFill=1;fillColor=#60a917;curved=1;" edge="1" parent="WIyWlLk6GJQsqaUBKTNV-1" source="PU9GwJ7Ga9DkK4zif8IB-23" target="PU9GwJ7Ga9DkK4zif8IB-26">
          <mxGeometry relative="1" as="geometry" />
        </mxCell>
        <mxCell id="PU9GwJ7Ga9DkK4zif8IB-23" value="llm事务" style="shape=ellipse;html=1;dashed=0;whiteSpace=wrap;aspect=fixed;perimeter=ellipsePerimeter;fontFamily=Helvetica;fontSize=11;fontColor=default;labelBackgroundColor=default;" vertex="1" parent="WIyWlLk6GJQsqaUBKTNV-1">
          <mxGeometry x="3010" y="3490" width="100" height="100" as="geometry" />
        </mxCell>
        <mxCell id="PU9GwJ7Ga9DkK4zif8IB-26" value="诊断记录" style="html=1;dashed=0;whiteSpace=wrap;shape=partialRectangle;right=0;fontFamily=Helvetica;fontSize=11;fontColor=default;labelBackgroundColor=default;" vertex="1" parent="WIyWlLk6GJQsqaUBKTNV-1">
          <mxGeometry x="3010" y="3380" width="100" height="30" as="geometry" />
        </mxCell>
        <mxCell id="PU9GwJ7Ga9DkK4zif8IB-37" style="edgeStyle=none;shape=connector;rounded=0;orthogonalLoop=1;jettySize=auto;html=1;exitX=0;exitY=0.5;exitDx=0;exitDy=0;entryX=1;entryY=0.5;entryDx=0;entryDy=0;strokeColor=default;align=center;verticalAlign=middle;fontFamily=Helvetica;fontSize=11;fontColor=default;labelBackgroundColor=default;startFill=0;endArrow=classic;endFill=1;" edge="1" parent="WIyWlLk6GJQsqaUBKTNV-1" source="PU9GwJ7Ga9DkK4zif8IB-29" target="PU9GwJ7Ga9DkK4zif8IB-36">
          <mxGeometry relative="1" as="geometry" />
        </mxCell>
        <mxCell id="PU9GwJ7Ga9DkK4zif8IB-29" value="仪表盘路由" style="shape=ellipse;html=1;dashed=0;whiteSpace=wrap;aspect=fixed;perimeter=ellipsePerimeter;fontFamily=Helvetica;fontSize=11;fontColor=default;labelBackgroundColor=default;" vertex="1" parent="WIyWlLk6GJQsqaUBKTNV-1">
          <mxGeometry x="2830" y="3490" width="100" height="100" as="geometry" />
        </mxCell>
        <mxCell id="PU9GwJ7Ga9DkK4zif8IB-39" style="edgeStyle=none;shape=connector;rounded=0;orthogonalLoop=1;jettySize=auto;html=1;exitX=0;exitY=0.5;exitDx=0;exitDy=0;strokeColor=default;align=center;verticalAlign=middle;fontFamily=Helvetica;fontSize=11;fontColor=default;labelBackgroundColor=default;startFill=0;endArrow=classic;endFill=1;" edge="1" parent="WIyWlLk6GJQsqaUBKTNV-1" source="PU9GwJ7Ga9DkK4zif8IB-36" target="PU9GwJ7Ga9DkK4zif8IB-38">
          <mxGeometry relative="1" as="geometry" />
        </mxCell>
        <mxCell id="PU9GwJ7Ga9DkK4zif8IB-36" value="仪表盘事务" style="shape=ellipse;html=1;dashed=0;whiteSpace=wrap;aspect=fixed;perimeter=ellipsePerimeter;fontFamily=Helvetica;fontSize=11;fontColor=default;labelBackgroundColor=default;" vertex="1" parent="WIyWlLk6GJQsqaUBKTNV-1">
          <mxGeometry x="2650" y="3490" width="100" height="100" as="geometry" />
        </mxCell>
        <mxCell id="PU9GwJ7Ga9DkK4zif8IB-44" style="edgeStyle=none;shape=connector;rounded=0;orthogonalLoop=1;jettySize=auto;html=1;strokeColor=#2D7600;align=center;verticalAlign=middle;fontFamily=Helvetica;fontSize=11;fontColor=default;labelBackgroundColor=default;startFill=0;endArrow=classic;endFill=1;entryX=0;entryY=0.5;entryDx=0;entryDy=0;fillColor=#60a917;" edge="1" parent="WIyWlLk6GJQsqaUBKTNV-1" target="PU9GwJ7Ga9DkK4zif8IB-38">
          <mxGeometry relative="1" as="geometry">
            <mxPoint x="2520" y="3610" as="targetPoint" />
            <mxPoint x="2330" y="3540" as="sourcePoint" />
          </mxGeometry>
        </mxCell>
        <mxCell id="PU9GwJ7Ga9DkK4zif8IB-49" value="1" style="edgeStyle=orthogonalEdgeStyle;shape=connector;rounded=0;orthogonalLoop=1;jettySize=auto;html=1;exitX=0.5;exitY=1;exitDx=0;exitDy=0;entryX=1;entryY=1;entryDx=0;entryDy=0;strokeColor=#2D7600;align=center;verticalAlign=middle;fontFamily=Helvetica;fontSize=11;fontColor=default;labelBackgroundColor=default;startFill=0;endArrow=classic;endFill=1;curved=1;fillColor=#60a917;" edge="1" parent="WIyWlLk6GJQsqaUBKTNV-1" source="PU9GwJ7Ga9DkK4zif8IB-38" target="PU9GwJ7Ga9DkK4zif8IB-19">
          <mxGeometry relative="1" as="geometry">
            <Array as="points">
              <mxPoint x="2510" y="3730" />
              <mxPoint x="3315" y="3730" />
            </Array>
          </mxGeometry>
        </mxCell>
        <mxCell id="PU9GwJ7Ga9DkK4zif8IB-38" value="前端仪表盘页面" style="shape=ellipse;html=1;dashed=0;whiteSpace=wrap;aspect=fixed;perimeter=ellipsePerimeter;fontFamily=Helvetica;fontSize=11;fontColor=default;labelBackgroundColor=default;" vertex="1" parent="WIyWlLk6GJQsqaUBKTNV-1">
          <mxGeometry x="2460" y="3490" width="100" height="100" as="geometry" />
        </mxCell>
        <mxCell id="PU9GwJ7Ga9DkK4zif8IB-67" style="edgeStyle=none;shape=connector;rounded=0;orthogonalLoop=1;jettySize=auto;html=1;exitX=1;exitY=0.5;exitDx=0;exitDy=0;entryX=0;entryY=0.5;entryDx=0;entryDy=0;strokeColor=default;align=center;verticalAlign=middle;fontFamily=Helvetica;fontSize=11;fontColor=default;labelBackgroundColor=default;startFill=0;endArrow=classic;endFill=1;" edge="1" parent="WIyWlLk6GJQsqaUBKTNV-1" source="PU9GwJ7Ga9DkK4zif8IB-63" target="PU9GwJ7Ga9DkK4zif8IB-66">
          <mxGeometry relative="1" as="geometry" />
        </mxCell>
        <mxCell id="PU9GwJ7Ga9DkK4zif8IB-74" style="edgeStyle=none;shape=connector;rounded=0;orthogonalLoop=1;jettySize=auto;html=1;exitX=1;exitY=0.5;exitDx=0;exitDy=0;entryX=0;entryY=0.5;entryDx=0;entryDy=0;strokeColor=default;align=center;verticalAlign=middle;fontFamily=Helvetica;fontSize=11;fontColor=default;labelBackgroundColor=default;startFill=0;endArrow=classic;endFill=1;" edge="1" parent="WIyWlLk6GJQsqaUBKTNV-1" source="PU9GwJ7Ga9DkK4zif8IB-63" target="PU9GwJ7Ga9DkK4zif8IB-73">
          <mxGeometry relative="1" as="geometry" />
        </mxCell>
        <mxCell id="PU9GwJ7Ga9DkK4zif8IB-63" value="仪表盘路由" style="shape=ellipse;html=1;dashed=0;whiteSpace=wrap;aspect=fixed;perimeter=ellipsePerimeter;fontFamily=Helvetica;fontSize=11;fontColor=default;labelBackgroundColor=default;" vertex="1" parent="WIyWlLk6GJQsqaUBKTNV-1">
          <mxGeometry x="2650" y="4050" width="100" height="100" as="geometry" />
        </mxCell>
        <mxCell id="PU9GwJ7Ga9DkK4zif8IB-65" style="edgeStyle=none;shape=connector;rounded=0;orthogonalLoop=1;jettySize=auto;html=1;exitX=1;exitY=0.5;exitDx=0;exitDy=0;strokeColor=default;align=center;verticalAlign=middle;fontFamily=Helvetica;fontSize=11;fontColor=default;labelBackgroundColor=default;startFill=0;endArrow=classic;endFill=1;" edge="1" parent="WIyWlLk6GJQsqaUBKTNV-1" source="PU9GwJ7Ga9DkK4zif8IB-64" target="PU9GwJ7Ga9DkK4zif8IB-63">
          <mxGeometry relative="1" as="geometry" />
        </mxCell>
        <mxCell id="PU9GwJ7Ga9DkK4zif8IB-64" value="操作界面&lt;div&gt;（打开dash）&lt;/div&gt;" style="shape=ellipse;html=1;dashed=0;whiteSpace=wrap;aspect=fixed;perimeter=ellipsePerimeter;fontFamily=Helvetica;fontSize=11;fontColor=default;labelBackgroundColor=default;" vertex="1" parent="WIyWlLk6GJQsqaUBKTNV-1">
          <mxGeometry x="2460" y="4050" width="100" height="100" as="geometry" />
        </mxCell>
        <mxCell id="PU9GwJ7Ga9DkK4zif8IB-79" style="edgeStyle=none;shape=connector;rounded=0;orthogonalLoop=1;jettySize=auto;html=1;exitX=1;exitY=0.5;exitDx=0;exitDy=0;entryX=0;entryY=0.5;entryDx=0;entryDy=0;strokeColor=default;align=center;verticalAlign=middle;fontFamily=Helvetica;fontSize=11;fontColor=default;labelBackgroundColor=default;startFill=0;endArrow=classic;endFill=1;" edge="1" parent="WIyWlLk6GJQsqaUBKTNV-1" source="PU9GwJ7Ga9DkK4zif8IB-66" target="PU9GwJ7Ga9DkK4zif8IB-78">
          <mxGeometry relative="1" as="geometry" />
        </mxCell>
        <mxCell id="PU9GwJ7Ga9DkK4zif8IB-66" value="声音kpi事务" style="shape=ellipse;html=1;dashed=0;whiteSpace=wrap;aspect=fixed;perimeter=ellipsePerimeter;fontFamily=Helvetica;fontSize=11;fontColor=default;labelBackgroundColor=default;" vertex="1" parent="WIyWlLk6GJQsqaUBKTNV-1">
          <mxGeometry x="2840" y="3990" width="100" height="100" as="geometry" />
        </mxCell>
        <mxCell id="PU9GwJ7Ga9DkK4zif8IB-70" style="edgeStyle=none;shape=connector;rounded=0;orthogonalLoop=1;jettySize=auto;html=1;exitX=0.5;exitY=1;exitDx=0;exitDy=0;strokeColor=default;align=center;verticalAlign=middle;fontFamily=Helvetica;fontSize=11;fontColor=default;labelBackgroundColor=default;startFill=0;endArrow=classic;endFill=1;entryX=0;entryY=0;entryDx=0;entryDy=0;" edge="1" parent="WIyWlLk6GJQsqaUBKTNV-1" source="PU9GwJ7Ga9DkK4zif8IB-69" target="PU9GwJ7Ga9DkK4zif8IB-66">
          <mxGeometry relative="1" as="geometry">
            <mxPoint x="2810" y="3890" as="targetPoint" />
          </mxGeometry>
        </mxCell>
        <mxCell id="PU9GwJ7Ga9DkK4zif8IB-69" value="数据指标" style="html=1;dashed=0;whiteSpace=wrap;shape=partialRectangle;right=0;fontFamily=Helvetica;fontSize=11;fontColor=default;labelBackgroundColor=default;" vertex="1" parent="WIyWlLk6GJQsqaUBKTNV-1">
          <mxGeometry x="2710" y="3920" width="100" height="30" as="geometry" />
        </mxCell>
        <mxCell id="PU9GwJ7Ga9DkK4zif8IB-80" style="edgeStyle=none;shape=connector;rounded=0;orthogonalLoop=1;jettySize=auto;html=1;exitX=1;exitY=0.5;exitDx=0;exitDy=0;strokeColor=default;align=center;verticalAlign=middle;fontFamily=Helvetica;fontSize=11;fontColor=default;labelBackgroundColor=default;startFill=0;endArrow=classic;endFill=1;entryX=0;entryY=0.5;entryDx=0;entryDy=0;" edge="1" parent="WIyWlLk6GJQsqaUBKTNV-1" source="PU9GwJ7Ga9DkK4zif8IB-73" target="PU9GwJ7Ga9DkK4zif8IB-78">
          <mxGeometry relative="1" as="geometry">
            <mxPoint x="3000" y="4110" as="targetPoint" />
          </mxGeometry>
        </mxCell>
        <mxCell id="PU9GwJ7Ga9DkK4zif8IB-73" value="声音kpi事务" style="shape=ellipse;html=1;dashed=0;whiteSpace=wrap;aspect=fixed;perimeter=ellipsePerimeter;fontFamily=Helvetica;fontSize=11;fontColor=default;labelBackgroundColor=default;" vertex="1" parent="WIyWlLk6GJQsqaUBKTNV-1">
          <mxGeometry x="2840" y="4120" width="100" height="100" as="geometry" />
        </mxCell>
        <mxCell id="PU9GwJ7Ga9DkK4zif8IB-76" style="edgeStyle=none;shape=connector;rounded=0;orthogonalLoop=1;jettySize=auto;html=1;exitX=0.5;exitY=0;exitDx=0;exitDy=0;entryX=0.5;entryY=1;entryDx=0;entryDy=0;strokeColor=default;align=center;verticalAlign=middle;fontFamily=Helvetica;fontSize=11;fontColor=default;labelBackgroundColor=default;startFill=0;endArrow=classic;endFill=1;" edge="1" parent="WIyWlLk6GJQsqaUBKTNV-1" source="PU9GwJ7Ga9DkK4zif8IB-75" target="PU9GwJ7Ga9DkK4zif8IB-73">
          <mxGeometry relative="1" as="geometry" />
        </mxCell>
        <mxCell id="PU9GwJ7Ga9DkK4zif8IB-75" value="诊断记录" style="html=1;dashed=0;whiteSpace=wrap;shape=partialRectangle;right=0;fontFamily=Helvetica;fontSize=11;fontColor=default;labelBackgroundColor=default;" vertex="1" parent="WIyWlLk6GJQsqaUBKTNV-1">
          <mxGeometry x="2710" y="4280" width="100" height="30" as="geometry" />
        </mxCell>
        <mxCell id="PU9GwJ7Ga9DkK4zif8IB-83" style="edgeStyle=none;shape=connector;rounded=0;orthogonalLoop=1;jettySize=auto;html=1;exitX=1;exitY=0.5;exitDx=0;exitDy=0;entryX=0;entryY=0.5;entryDx=0;entryDy=0;strokeColor=default;align=center;verticalAlign=middle;fontFamily=Helvetica;fontSize=11;fontColor=default;labelBackgroundColor=default;startFill=0;endArrow=classic;endFill=1;" edge="1" parent="WIyWlLk6GJQsqaUBKTNV-1" source="PU9GwJ7Ga9DkK4zif8IB-78" target="PU9GwJ7Ga9DkK4zif8IB-82">
          <mxGeometry relative="1" as="geometry" />
        </mxCell>
        <mxCell id="PU9GwJ7Ga9DkK4zif8IB-78" value="发送" style="shape=ellipse;html=1;dashed=0;whiteSpace=wrap;aspect=fixed;perimeter=ellipsePerimeter;fontFamily=Helvetica;fontSize=11;fontColor=default;labelBackgroundColor=default;" vertex="1" parent="WIyWlLk6GJQsqaUBKTNV-1">
          <mxGeometry x="3030" y="4050" width="100" height="100" as="geometry" />
        </mxCell>
        <mxCell id="PU9GwJ7Ga9DkK4zif8IB-82" value="dashboard页面" style="shape=ellipse;html=1;dashed=0;whiteSpace=wrap;aspect=fixed;perimeter=ellipsePerimeter;fontFamily=Helvetica;fontSize=11;fontColor=default;labelBackgroundColor=default;" vertex="1" parent="WIyWlLk6GJQsqaUBKTNV-1">
          <mxGeometry x="3210" y="4050" width="100" height="100" as="geometry" />
        </mxCell>
      </root>
    </mxGraphModel>
  </diagram>
  <diagram id="XscMEfzW8vs3vLfKWX2s" name="第 2 页">
    <mxGraphModel dx="1484" dy="1286" grid="1" gridSize="10" guides="1" tooltips="1" connect="1" arrows="1" fold="1" page="1" pageScale="1" pageWidth="827" pageHeight="1169" math="0" shadow="0">
      <root>
        <mxCell id="0" />
        <mxCell id="1" parent="0" />
      </root>
    </mxGraphModel>
  </diagram>
</mxfile>
